<?xml version="1.0" encoding="UTF-8"?>
<svg width="600" height="600" version="1.1" xmlns="http://www.w3.org/2000/svg">
 <path d="m290.26 9.32c46.336-1.5427 93.12 7.9187 134.99 27.924 44.924 21.255 83.889 54.56 112.65 95.036 30.256 42.654 48.712 93.63 52.327 145.83 0.0194 14.711 0.0622 29.429-0.0249 44.147-2.4882 33.136-10.693 65.856-24.222 96.212-20.049 45.117-51.891 84.866-91.416 114.42-48.8 36.894-109.63 57.595-170.81 57.937-44.837 0.64071-89.799-9.3183-130.14-28.907-42.436-20.552-79.585-51.761-107.47-89.743-31.171-42.032-50.429-92.741-55.126-144.85-2.0092-21.436-1.58-43.095 1.1259-64.456 6.1209-48.408 24.683-95.21 53.639-134.5 38.803-53.166 96.056-92.753 159.8-109.44 21.1-5.6793 42.865-8.7771 64.68-9.6044" fill="#fff"/>
 <path d="m226.08 487.3c1.9064-6.3186 3.545-12.726 5.6236-18.994 1.441 0.1848 2.8947 0.49094 4.1699 1.2369-0.11484 1.7661-0.72685 3.4494-1.205 5.1454-2.0849 6.7776-3.8893 13.644-5.936 20.435 4.4249 1.4091 9.0028 2.3846 13.307 4.1698-0.35068 1.0839-0.72686 2.1678-1.1285 3.2517-5.885-1.3453-11.649-3.1752-17.406-4.9477 0.39529-3.5323 1.6705-6.8796 2.5759-10.297zm-18.254-21.302c1.1796-2.3655 1.9574-4.9796 3.6343-7.0645 1.4728 0.24229 4.342 1.1859 3.3155 3.1497-3.2836 7.4471-6.8286 14.786-10.131 22.233-0.64397 1.3134-1.1094 2.8054-2.289 3.7682-1.3326-0.28055-2.5185-0.97554-3.6917-1.6195 2.697-6.9689 6.1464-13.632 9.1622-20.467zm-30.585-28.877c1.4282-0.17858 2.5376 1.0138 3.4749 1.9192-0.083 1.2561-0.9309 2.2443-1.5749 3.2645-1.9765 2.8309-3.9339 5.6682-5.8531 8.5438 3.8192 2.6014 7.6384 5.2155 11.445 7.8296 2.7225-3.8 5.1135-7.8488 8.1293-11.432 1.0329 0.66309 2.1359 1.2561 3.0158 2.1296 0.43993 1.103-0.5037 2.0403-1.001 2.9393-4.0806 5.9169-8.1739 11.821-12.197 17.77-1.052 1.4983-1.9383 3.1816-3.3729 4.3611-1.4346 0.0573-2.544-1.0393-3.4749-1.9893 0.15933-1.1987 0.95-2.1614 1.5876-3.1369 1.7279-2.4802 3.4494-4.9669 5.139-7.4662-3.8383-2.5759-7.6511-5.1964-11.419-7.8615-2.6715 3.2645-4.3611 7.377-7.5746 10.144-1.0648-0.51007-2.1168-1.1285-2.8883-2.0339-0.32518-1.0648 0.51008-1.951 1.0074-2.7926 4.1188-5.8977 8.1676-11.84 12.204-17.789 1.0456-1.5175 1.9893-3.1433 3.3537-4.3994zm-24.222-25.414c1.7024-0.31879 2.5886 1.7725 3.7363 2.7161 2.4675 3.1752 6.1336 5.5534 7.5363 9.4555 1.9383 6.4014-4.3994 13.44-10.922 12.427-4.8138-0.93727-7.3897-5.5152-10.648-8.684-2.2125 2.0212-4.3994 4.0806-6.5736 6.1528-0.65034 0.52919-1.3262 1.3326-2.2698 1.0648-0.99464-0.82886-1.7534-1.8809-2.5631-2.8756 5.1454-5.0115 10.374-9.9401 15.653-14.811 2.002-1.8299 3.7873-3.9276 6.0508-5.445m-7.5746 13.389c2.0722 1.951 3.8128 4.2846 6.0954 6.0061 4.0742 2.4229 9.6659-2.4483 8.327-6.8031-1.2943-2.8692-3.9084-4.8074-5.9296-7.1347-2.8819 2.5886-5.7511 5.19-8.4927 7.9317zm139.65 55.133c2.4611-1.1859 5.2856-0.65672 7.9189-0.87352 3.4303 0.0573 7.4152-0.91811 10.291 1.5238 4.8967 3.6343 5.2346 11.98 0.24866 15.691-3.7235 2.7608-8.6202 1.696-12.93 2.0212 6e-3 3.8128 0.27418 7.6192 0.21679 11.432-1.4792 0.14029-2.9584 0.17857-4.4376 0.10842-0.14671-4.8776-0.72048-9.7297-0.74599-14.614-0.0136-5.1071-0.89262-10.182-0.56108-15.289m4.833 3.0796c0.0447 3.851 0.18499 7.7021 0.29968 11.56 2.9967-0.27418 6.1719 0.29967 9.0474-0.72687 4.3611-2.0148 3.8829-9.2515-0.60572-10.814-2.8883-0.51007-5.834 6e-3 -8.7414-0.0194zm-26.396-6.6437c1.39 0.0383 2.8054 0.0766 4.1635 0.44632 0.31879 3.9212-0.88627 7.7722-1.1604 11.668-0.93088 6.2038-1.3071 12.503-2.6843 18.63-1.4346-0.19764-2.8564-0.43993-4.2719-0.73322 1.1732-10.023 2.3463-20.052 3.9531-30.011zm57.74 1.0648c5.0497-0.85437 9.9528-2.85 15.105-2.8692 7.2558 0.61209 10.737 10.699 6.0763 15.997-3.1306 3.5514-8.2951 3.3984-12.529 4.5907 0.32517 3.3219 1.4792 6.4843 1.8745 9.7934 0.42718 2.1933-2.4611 2.2762-3.9658 2.0913-1.8044-5.6618-2.697-11.598-4.1699-17.362-0.76511-4.087-2.1742-8.0719-2.391-12.242m5.0625 2.9329c0.93726 3.6725 1.6896 7.3833 2.5185 11.088 2.9648-0.64396 6.1655-0.86713 8.8434-2.4037 4.1188-2.85 1.7151-10.323-3.1816-10.501-2.7799 0.30605-5.4769 1.1222-8.1803 1.8172zm29.852-11.968c1.2178-0.52282 2.4165-1.1413 3.7299-1.4218 1.3453 1.6641 2.002 3.7363 2.8118 5.6937 2.9967 7.4024 6.2165 14.709 9.1176 22.156-1.2943 0.67584-2.6269 1.2879-4.0168 1.7597-2.8564-5.496-4.8967-11.375-7.3387-17.056-1.4665-3.698-3.3155-7.2622-4.3037-11.132zm37.07-18.554c1.1987-0.88626 2.4484-1.7024 3.7682-2.4037 4.3548 6.1464 8.0974 12.701 12.204 19.019 1.2752 2.1487 2.9202 4.1125 3.8128 6.4716-0.81612 1.205-2.2443 2.2635-3.7554 1.6386-8.2058-2.9776-16.246-6.4078-24.433-9.4364 3.596 5.7957 7.3706 11.489 10.89 17.336 1.2816 1.9064-1.7279 2.7735-2.799 3.7618-2.1295-2.5185-3.7108-5.4259-5.496-8.1739-3.6024-5.8212-7.3897-11.534-10.884-17.425 0.80337-0.72048 1.5685-1.5175 2.5567-1.9893 1.7279 0.29967 3.3346 1.0712 4.9732 1.6896 6.9115 2.6779 13.81 5.394 20.728 8.0592-3.8-6.2165-7.8934-12.255-11.566-18.548zm24.088-18.917c2.1678-1.9829 3.985-4.3739 6.4333-6.038 1.5812-0.0637 3.2645 2.1232 1.798 3.3665-3.0477 3.2262-6.3504 6.2102-9.4427 9.3981 2.3718 2.2507 4.6544 4.5907 6.8988 6.9689 2.7608-2.6843 5.4132-5.4833 8.2887-8.04 1.2306-1.3517 3.0987 0.47181 3.1306 1.8809-2.6205 3.2453-5.9169 5.885-8.7478 8.9454 2.1997 2.1104 4.3165 4.2974 6.4142 6.5098 3.6725-3.2581 6.8605-7.0518 10.718-10.093 1.0074 0.54831 1.8171 1.39 2.3846 2.391-1.8681 2.5057-4.3229 4.4886-6.4907 6.7266-2.2953 2.1678-4.3611 4.5907-6.8286 6.5608-0.91176-0.14029-1.5749-0.81612-2.1933-1.4155-5.5598-5.7128-11.203-11.343-16.82-17.005-0.91176-0.94365-1.8618-1.8936-2.4292-3.0923 2.0467-2.5822 4.6162-4.6863 6.886-7.0645zm-206.81-28.354c4.0551-1.4537 8.7223-0.16575 11.853 2.6651 1.9957 1.8363 3.6534 4.0487 5.9169 5.5917 4.6863 3.4239 11.049 4.6544 16.546 2.5631 3.5259-1.2242 6.5544-3.5641 8.9837-6.3632 2.4356-2.8819 5.9934-5.0115 9.8317-5.0688 3.7172-0.0383 7.3004 1.7853 9.736 4.5524 2.5121 2.85 5.4833 5.4195 9.1048 6.7394 3.239 1.3645 6.8286 1.001 10.246 0.79063-0.0573 10.884-0.0383 21.767-0.0194 32.651-33.359 0.31879-66.475-12.95-90.742-35.769-0.17216-0.24229-0.52284-0.7141-0.69498-0.95002 2.6715-2.8947 5.3175-6.2102 9.2387-7.4024zm226.67 9.8125c-0.36343-6.8605 6.9753-13.689 13.817-10.992-0.12747 1.2433-0.0956 2.595-0.83524 3.6789-2.1041 0.25504-4.5715-0.21678-6.1528 1.5557-2.1933 1.747-3.5386 5.5407-1.2306 7.7149 1.2497 1.3836 3.3729 1.2306 4.8712 0.33791 3.7108-1.8554 6.8159-5.1518 11.113-5.6363 4.6863-0.60571 9.1176 3.7873 8.6904 8.4672-0.42719 7.2686-8.0273 14.186-15.449 11.674 0.19766-1.2816 0.51008-2.5312 0.88625-3.7618 2.2125-0.17216 4.6863-0.0573 6.5353-1.4983 2.1232-1.645 3.934-4.1571 3.6215-6.9689-0.0828-1.9128-1.951-3.2326-3.698-3.5068-5.2984 0.70136-8.531 6.3951-14.027 6.5098-4.2272 0.44632-8.2186-3.3665-8.1421-7.5746zm-233.4-36.891c3.2454-3.9403 8.7286-6.6182 13.798-4.7947 5.2219 1.39 7.5618 6.8796 12.165 9.2834 5.5917 3.4685 13.032 3.4048 18.611-0.0702 3.9276-2.0977 6.0571-6.4142 10.048-8.4162 3.1051-1.6386 6.9306-1.8682 10.131-0.35068 2.9138 1.1285 4.884 3.6343 7.0071 5.7957 4.393 4.4185 11.024 6.6756 17.158 5.1709v22.807c-4.2719 0.87987-9.0857 0.35705-12.306-2.8437-2.8564-2.9138-5.6427-6.1145-9.5511-7.632-5.6427-2.5312-12.471-1.6259-17.47 1.9319-3.3474 2.1232-5.3175 5.8977-8.9008 7.6957-3.749 1.849-8.531 1.696-12.044-0.63121-2.5759-1.6195-4.2209-4.2719-6.5927-6.1273-3.9722-3.341-9.3726-4.9286-14.512-4.1061-4.4121 0.72687-8.4162 3.1943-11.413 6.4652-1.3963 1.4983-2.8245 2.9903-4.5141 4.1699-0.81612-0.28055-1.3389-1.0138-1.9319-1.5812-7.192-7.938-13.249-16.839-18.548-26.135 3.0094 2.4802 6.1464 5.0816 10.08 5.885 6.8541 1.9064 14.333-1.1668 18.783-6.5162zm-42.094-35.967c4.6927-0.66947 9.5511 1.1285 12.586 4.7883 3.6534 4.3037 8.9518 7.6766 14.773 7.4534 5.8595 0.32517 11.317-2.8947 15.009-7.2494 2.697-3.2836 6.8924-5.3813 11.183-5.0625 3.6024 0.34428 6.7521 2.5057 9.0602 5.1964 2.7544 3.1688 6.344 5.6937 10.457 6.7202 4.5588 0.86075 9.5192 0.43995 13.511-2.104 4.24-2.2316 6.4269-7.0709 10.954-8.8625 4.9987-2.3718 11.094-0.17216 14.512 3.9021 3.0222 3.5578 7.0645 6.4333 11.732 7.2558 2.4101 0.31879 4.8457 0.13388 7.2622-0.0701-0.083 7.1984 0.0254 14.397-0.0511 21.602-2.9839 0.72048-6.1846 0.85438-8.9582-0.64396-3.749-1.5238-5.7192-5.292-8.9263-7.5427-3.392-2.4611-7.5937-3.9594-11.808-3.749-5.4259 0.3443-10.444 3.2198-13.938 7.3132-2.5312 3.0413-6.2293 5.241-10.265 5.2155-2.0913-0.16575-4.1698-0.75874-5.9615-1.8554-3.2964-1.9255-5.2793-5.4004-8.4736-7.4534-4.0933-2.6779-9.2833-4.036-14.097-2.748-4.4759 0.9564-8.3015 3.7618-11.247 7.1793-2.952 3.4876-7.7977 5.7702-12.369 4.5014-3.2262-0.71411-5.8977-2.85-7.9635-5.3494-2.697-3.1625-6.4014-5.2792-10.367-6.4142-2.901-7.0964-5.2538-14.467-6.6118-22.022zm-3.1114-26.792c44.708 0.0319 89.422 6e-3 134.14 0.0136-0.0447 9.8891 0.0319 19.784-0.0383 29.674-2.7799 0.37617-5.7447 0.75234-8.3907-0.39532-4.7947-1.8936-7.0836-7.1092-11.732-9.2578-7.1602-4.2528-16.794-2.3017-22.303 3.7618-2.7608 3.2007-6.3058 6.4397-10.839 6.2612-4.0424 0.35706-7.7786-1.8682-10.323-4.8521-3.749-4.3866-9.2515-7.6256-15.149-7.4535-4.0168-0.0383-7.9189 1.5302-11.081 3.934-2.2826 1.747-3.9594 4.138-6.2102 5.9169-3.8829 3.0668-9.7552 3.3537-13.88 0.61846-3.0923-1.9702-4.9924-5.3048-8.1102-7.2494-4.24-3.0286-9.634-3.6853-14.684-2.952-0.8735-5.9679-1.3708-11.987-1.3963-18.018zm-40.226-26.67c4.731-0.10201 9.4683-0.21677 14.199-0.31242 3.7746 7.4726 4.4823 16.399 1.9829 24.375-2.5376 8.142-8.8689 14.952-16.705 18.267-7.4981 3.137-16.176 3.4111-23.801 0.53557-8.6904-3.1306-15.627-10.629-18.146-19.51-2.1551-7.1028-1.6259-14.881 1.1732-21.729 4.782-0.63123 9.6085-0.41444 14.41-0.59297-4.0168 5.0561-5.2665 11.917-3.749 18.133 1.3644 4.8266 4.9924 8.8817 9.4938 11.018 8.2951 4.0678 19.631 1.0202 24.088-7.2686 4.1954-7.2813 2.2125-16.654-2.9457-22.915zm-37.994-29.75c19.574 3.3601 39.18 6.529 58.748 9.9464-0.73959 4.0678-1.4728 8.1357-2.104 12.216-19.593-3.188-39.174-6.529-58.748-9.8444 0.6886-4.1125 1.3389-8.2249 2.104-12.318zm270.38-2.1933c13.205 0.0447 26.409 0.0573 39.62-0.0136 0.0319 14.48-0.0136 28.959 0.0194 43.439-2.6141-0.0319-5.2346-0.0447-7.8424 6e-3 6e-3 -12.082 0.0383-24.171-0.0136-36.254 0.26141-1.9319-2.4547-3.0987-3.7937-1.8235-1.2242 0.82249-1.0839 2.4165-1.1158 3.698 0.0573 11.451-0.0194 22.902 0.0447 34.353-1.543 0-3.0859 0-4.6226 0.0136-6e-3 -11.853-6e-3 -23.699 0-35.552 0.15292-1.3517-0.70771-3.1561-2.2698-2.9967-1.6195-0.28053-2.8437 1.4282-2.7034 2.9202 0.0255 11.878-0.0319 23.757 0.0383 35.629-1.5685-6e-3 -3.137-6e-3 -4.699-6e-3 0.0136-12.082 0.0573-24.171-0.0136-36.254 0.15312-2.002-2.5121-3.086-3.9021-1.7406-0.79062 0.51008-0.6376 1.5749-0.7141 2.3846 0.0254 11.859 0 23.718 0.0194 35.578-2.6842 0.0319-5.3749 0.0136-8.0592 0.0447-6e-3 -14.473-0.0136-28.953 6e-3 -43.426zm-33.78-8.5629c-1.9702-2.289 0.0573-5.8658 2.8373-6.1018 2.7544-0.35705 3.9403 3.596 6.6756 3.1114 1.4665-0.99463 2.5568-2.493 4.1699-3.29 3.0541-0.82889 6.2356 3.0796 4.2464 5.7574-2.6651 3.341-5.8786 6.1974-8.7796 9.328-3.0158-2.9712-6.3249-5.6427-9.1494-8.8051zm-8.8753-20.142c9.1941 0.59295 18.414 0.20403 27.621 0.32516 3.341 0.10843 6.6628-0.29329 10.004-0.33791 0.17216 24.044 0.0194 48.1 0.0892 72.15-12.573-0.0702-25.147-0.0383-37.714-0.0194-0.0136-24.037-6e-3 -48.081 0-72.118m7.141 11.598c-3.7044 2.6396-4.2209 8.7223-0.88625 11.853 3.8319 3.8766 7.8488 7.5682 11.897 11.228 4.0423-4.2336 8.3907-8.2122 12.102-12.739 3.596-4.731-0.5802-12.471-6.4779-12.102-2.3655-0.31881-4.393 0.99464-6.2548 2.2443-2.8373-2.5249-7.3833-2.9776-10.38-0.48458m9.9911 31.625c-2.3591 1.154-1.9574 4.3484-1.4282 6.4588 0.36342 1.4728 2.0913 1.5685 3.3091 1.2433 1.8554-1.1413 1.2688-3.5514 1.3007-5.3749 0.10843-1.6131-1.6514-2.9584-3.1816-2.3272m8.4354 0.80974c-1.2433 2.1487-0.57383 4.782 0.22954 6.9689 0.93088-0.0136 1.8745 0.0319 2.8054-0.0956 1.9765-1.2688 1.3134-3.9212 1.256-5.8914-0.30604-1.9638-3.1369-2.646-4.291-0.98189m-18.65-0.40806c-1.4665 1.3963-0.71411 3.7172-0.797 5.5216-0.12747 2.6715 4.5715 2.544 4.6034-0.0447-0.0383-1.8745 0.72687-4.4504-1.1477-5.6746-0.75873-0.43993-2.0467-0.49093-2.6588 0.19766m0.57382 14.027c-2.2188 0.87988-1.2433 3.7235-1.4027 5.5726-0.19764 1.7406 2.0084 2.9329 3.4749 2.0722 1.7725-1.0456 1.1158-3.392 1.2178-5.0944 0.19766-1.6004-1.8108-3.6088-3.29-2.5504m9.5511 0c-1.5749 0.5037-1.7406 2.3463-1.696 3.7427 0.0509 1.256-0.0511 2.85 1.154 3.6343 1.4027 1.3772 3.9786-0.0383 3.8064-1.9-0.12747-1.798 0.72048-4.4058-1.3326-5.3494-0.61846-0.58022-1.2624-0.62485-1.9319-0.12747m9.5639-0.0194c-2.0276 0.70136-1.6832 3.3155-1.6578 5.0242-0.15292 1.8809 2.0084 3.7044 3.7363 2.6141 1.7534-1.0584 1.2242-3.3601 1.2561-5.0689 0.1912-1.6386-1.798-3.5769-3.3346-2.5695zm82.913-66.482c16.495 23.508 25.172 52.276 24.732 80.962-8.2505 0-16.501-0.0447-24.751 0.0254 0.0319-26.996 0-53.991 0.0194-80.987zm-89.161-13.453c10.061 0.5292 20.142 0.20403 30.216 0.29966 3.1306 0.083 6.242-0.24865 9.3726-0.33792 0.10201 15.455 0 30.91 0.0511 46.372-5.7957 0-11.585-0.0194-17.368-6e-3 0.0136-2.6588 0-5.3112 0.0254-7.9635 2.7544-0.17216 5.5279 0.13388 8.276-0.2104 1.7342-0.94365 1.6705-3.5068-0.0319-4.4376-2.7416-0.33793-5.5215-0.0637-8.2759-0.15312 6e-3 -2.6779 6e-3 -5.3558 0.0319-8.0337 2.7608-0.0511 5.5407 0.21677 8.2887-0.13389 1.7534-0.93088 1.6514-3.5067-0.0637-4.4121-2.6014-0.35705-5.241-0.11484-7.8615-0.12747-0.40806-0.97551-0.77149-1.9765-1.3262-2.8755-1.0329-0.35705-2.1359-0.30605-3.2007-0.32517-6.0571 0.0447-12.121 0.0255-18.178 0.0194 0.0511-5.8913-0.0194-11.783 0.0447-17.674m9.4874 8.2058c-1.6195 0.40168-1.7215 2.3655-1.2306 3.6725 0.47818 1.1222 1.8171 0.86075 2.8054 0.9564 6.1528-0.0447 12.306 0.0319 18.458-0.0383 1.7087 0.1912 2.9839-2.1041 2.0403-3.5131-0.83524-1.6896-2.9903-1.1094-4.495-1.2433-5.8595 0.15934-11.738-0.2104-17.578 0.16575zm-239.08-10.361c3.8256 1.1158 7.4152 2.9266 11.196 4.2018-1.6386 4.5333-3.4621 8.9964-5.1262 13.523 14.76 5.7065 29.508 11.47 44.306 17.087-1.6322 3.6853-2.7162 7.6065-4.4632 11.234-0.2104 0.0319-0.63121 0.10201-0.84161 0.13388-14.537-5.5343-29.042-11.177-43.541-16.82-1.9 4.4504-3.2198 9.1622-5.4387 13.466-3.5896-1.6578-7.6129-2.5185-10.935-4.6417 5.0178-12.701 9.7807-25.51 14.843-38.185zm274.22-10.559c5.834 6e-3 11.668 0 17.508-0.0194 1.288 0.0511 2.7672-0.1403 3.8511 0.73959 2.7289 2.1041 5.0688 4.6481 7.6256 6.9498-0.7141 0.69496-1.4664 1.3581-2.0658 2.1487-0.15934 1.747-0.40806 3.6789 0.43356 5.2984 1.0457 1.4027 3.4366 1.1158 4.24-0.41444 0.25504-1.339 0.17858-2.7098 0.26781-4.0615 2.4611 2.6333 4.8393 5.3494 7.1028 8.1548 0.63121 0.62484 0.65673 1.5238 0.66947 2.3655-0.0255 28.66-0.0319 57.32 6e-3 85.979-2.544-0.0319-5.088-0.0319-7.6256 0.0136-0.42082-1.3262-0.56747-3.6279-2.4547-3.5195-2.0403-0.30605-2.5376 2.0403-2.9839 3.5131-1.4346-0.0255-2.8692-0.0255-4.291-6e-3 -0.0383-16.099 0.0136-32.205-0.0194-48.304 0.14029-1.4091-0.69497-3.035-2.2698-3.0413-1.8809-0.18479-2.4165 1.951-3.0987 3.2581-1.2816-6e-3 -2.5504-6e-3 -3.8128 0-0.7141-1.1795-0.86073-3.3537-2.6588-3.2135-1.9-0.37618-2.3464 1.9574-3.1051 3.2007-2.4547-0.0194-4.9095 6e-3 -7.3642 6e-3 0.0511-19.682-0.0447-39.365 0.0447-59.047m9.4938 8.1166c-2.3081 0.93727-1.849 3.9977-1.6322 5.987 0.20403 2.2953 3.7235 2.5376 4.648 0.59934 0.28055-1.645 0.26141-3.3346 0.083-4.9796-0.3698-1.3071-1.849-1.9702-3.0987-1.6067m8.9199 0.39531c-1.4155 1.0265-1.1732 2.85-1.1413 4.3739 0.0194 1.1668 0.33791 2.7863 1.7279 2.9967 1.4856 0.61209 3.4557-0.67586 3.2517-2.3336-0.0766-1.7534 0.56745-4.036-1.0966-5.241-0.85438-0.22952-2.0849-0.58657-2.7417 0.20403m-9.5894 15.908c-1.594 1.3772-1.1222 3.7427-0.98189 5.5917 0.1848 1.6641 2.1232 2.3846 3.5259 1.7024 2.002-1.0456 1.1987-3.596 1.3071-5.4259 0.10843-1.9255-2.4866-3.086-3.8511-1.8682m9.5703 0.0136c-1.6832 1.3517-1.0775 3.7235-1.001 5.5917 0.22954 1.6577 2.1423 2.3591 3.5641 1.7151 1.9638-1.103 1.2242-3.6215 1.3007-5.4706 0.0136-1.8363-2.5057-3.1242-3.8638-1.8363m9.5575 0c-1.7024 1.3262-1.1222 3.7363-1.0393 5.5981 0.33154 2.5759 4.4504 2.4739 4.8202 0.0447-0.0447-1.9192 0.75236-4.4249-1.0584-5.7702-0.74597-0.51645-2.0594-0.51645-2.7225 0.12747m-18.458 15.551c-2.34 0.96914-1.849 3.9531-1.6577 5.9679 0.27416 1.7342 2.0913 2.2188 3.5769 1.7661 1.849-1.2178 1.2433-3.6534 1.2497-5.5152 0.14671-1.6067-1.747-2.7162-3.1688-2.2188m9.5639-0.0136c-1.1477 0.42081-1.8873 1.6577-1.7789 2.8755-0.0447 1.6641-0.24866 3.6598 1.205 4.8457 0.79063 0.19766 1.6514 0.22955 2.442-0.0194 1.9319-1.1349 1.339-3.6279 1.3198-5.4833 0.0702-1.5621-1.7597-2.748-3.188-2.2188m9.5511-0.0194c-0.90539 0.38892-1.7151 1.2497-1.7534 2.2762-0.0892 1.8554-0.40806 4.1188 1.1987 5.4642 0.91176 0.17858 2.1168 0.41443 2.8437-0.32516 1.39-1.0648 0.79061-3.0413 0.92451-4.5524 0.31241-1.7661-1.4856-3.4494-3.2135-2.8628m0 15.965c-1.154 0.3698-1.8363 1.696-1.7916 2.8692-0.083 1.6705-0.28693 3.6789 1.2306 4.8138 1.3071 0.38894 2.85 0.20403 3.5833-1.0903 0.26141-1.441 0.19766-2.9265 0.1403-4.3803 0.0319-1.5621-1.7151-2.7735-3.1625-2.2124m0.0255 15.914c-1.2433 0.30604-1.8873 1.7024-1.8426 2.901-0.0511 1.6259-0.28053 3.7108 1.2752 4.7692 1.2242 0.43995 2.901 0.26141 3.5195-1.052 0.35705-1.6259 0.28055-3.3282 0.13388-4.9732-0.31241-1.3389-1.8235-2.0403-3.086-1.645m0 15.921c-2.3463 0.98826-1.9638 3.9531-1.7151 6.0189 0.36343 1.7789 2.5759 2.5121 3.9467 1.3899 1.4856-0.98188 0.77786-3.035 0.94365-4.5205 0.28053-1.7853-1.3963-3.4685-3.1752-2.8883zm-93.624-119.04c9.0602 0.29967 18.159 0.90539 27.034 2.8692 18.898 3.9276 36.987 11.993 52.372 23.661-5.732 0.19766-11.477-0.0383-17.209 0.0956-1.3963 0.0573-2.2061 1.5685-2.1742 2.8437-0.12125 3.29 0.0136 6.5927-0.0194 9.8891-1.5493 0-3.0923 6e-3 -4.6353 0.0319-0.10201-3.5131 0.0702-7.0326-0.0637-10.546 0.0136-0.96914-0.66947-2.1359-1.7151-2.1678-3.5896-0.24866-7.192 0.0573-10.782-0.10201-0.43355-2.6014 0.0511-5.2538-0.26141-7.8679-0.59297-2.0212-3.5769-2.3463-4.444-0.38256-0.85437 2.6588-0.23591 5.5279-0.37619 8.2696-3.8638 0.0136-7.734-6e-3 -11.591 0.0194-2.1869 3.8829-0.80335 8.5374-1.1476 12.771-2.697 0.0447-5.4259-0.24229-8.1038 0.15293-1.5366 0.63121-1.3963 2.5695-1.5111 3.9467 6e-3 6.0699 0 12.133 0.0255 18.203-5.139-6e-3 -10.278-0.0136-15.417 6e-3 0.0447-20.562 6e-3 -41.125 0.0194-61.693zm-181.41 0.13388c2.6396-3.8638 5.3558-7.6766 8.1293-11.451 5.0944 11.075 10.354 22.073 15.436 33.148 0.54834 1.2433 1.2943 2.4356 2.442 3.2198 6.4907 4.6417 13.026 9.2323 19.491 13.925-2.4866 3.3474-4.9095 6.7457-7.2941 10.163-6.395-4.6417-12.879-9.1622-19.262-13.817-1.0775-0.84799-2.3718-1.3581-3.7363-1.441-12.216-1.0775-24.388-2.646-36.611-3.6598 2.6141-3.8766 5.3366-7.683 8.1038-11.458 8.0528 0.70136 16.004 2.2698 24.05 2.9967-3.6152-7.1984-7.1984-14.403-10.75-21.627zm72.845-56.338c6.14-0.75873 12.586-0.0511 18.095 2.9202 8.786 4.4568 14.907 13.37 16.628 22.992 1.492 8.1293-0.76511 16.775-5.7957 23.298-5.0944 6.4716-12.733 10.928-20.9 12.044-5.5853 0.93088-11.394-0.14029-16.507-2.4802-9.2833-4.2974-15.972-13.472-17.661-23.502-1.3453-7.1793 0.19766-14.862 4.1507-20.996 4.7756-7.6638 13.103-12.905 21.991-14.276m0.0319 12.79c-8.7478 1.9255-15.2 11.113-13.536 20.008 1.1923 9.2515 10.074 16.883 19.478 16.023 6.7585-0.68859 13.058-5.3175 15.219-11.84 3.137-8.3333-1.1859-18.395-8.9582-22.469-3.6725-2.1296-8.0974-2.4165-12.204-1.7215zm40.557-29.776c11.062-2.3017 22.112-4.6736 33.206-6.8541 0.73324 3.9276 1.6641 7.8232 2.4101 11.751-6.9689 1.5493-14.008 2.7799-20.958 4.4376 0.89262 4.5588 1.8554 9.1048 2.85 13.644 6.4142-1.1859 12.745-2.8182 19.185-3.8383 0.92451 3.8574 1.6259 7.7595 2.5376 11.623-6.4269 1.4473-12.892 2.6779-19.332 4.0678 1.3644 6.9944 3.0158 13.938 4.3101 20.945-4.0423 0.96275-8.1421 1.6705-12.197 2.5759-3.9339-19.466-8.1038-38.88-12.012-58.352zm49.892-84.169c47.494-1.5812 95.448 8.1166 138.36 28.622 46.047 21.787 85.986 55.923 115.46 97.411 31.012 43.72 49.93 95.97 53.634 149.47 0.0194 15.079 0.0637 30.165-0.0255 45.25-2.5504 33.965-10.96 67.502-24.828 98.616-20.55 46.245-53.188 86.987-93.701 117.28-50.019 37.816-112.37 59.035-175.08 59.385-45.958 0.65672-92.043-9.5511-133.4-29.629-43.496-21.066-81.573-53.054-110.16-91.985-31.95-43.082-51.69-95.059-56.503-148.47-2.0594-21.971-1.6195-44.172 1.154-66.067 6.2739-49.617 25.3-97.59 54.98-137.86 39.773-54.495 98.457-95.071 163.8-112.18 21.627-5.8212 43.936-8.9964 66.297-9.8444m-10.074 14.053c-15.583 1.1604-31.108 3.443-46.296 7.1857-49.394 11.757-95.339 37.344-131.62 72.839-31.924 30.936-56.427 69.504-70.747 111.6-18.579 54.304-20.333 114.21-4.7756 169.46 13.721 49.337 41.38 94.593 78.571 129.73 34.953 33.282 78.571 57.409 125.41 69.102 41.469 10.457 85.284 11.477 127.19 2.9138 31.382-6.4014 61.649-18.229 89.078-34.755 48.718-29.285 88.415-73.387 112.11-125.08 15.921-34.532 24.694-72.322 25.848-110.32 1.3963-43.592-7.2686-87.529-25.523-127.16-21.072-46.123-54.839-86.279-96.353-115.35-45.04-31.612-99.554-49.42-154.54-50.695-5.5088-0.43355-11.056-0.39531-16.565 0.0573-3.9339 0.15293-7.8806 0.0447-11.795 0.47182zm58.117 174.6c6.9179 0.10202 13.861-0.28692 20.766 0.2359-0.0194 2.6014-0.0319 5.1964 0 7.7978-6.9306 0.0637-13.861 0-20.786 0.0319-6e-3 -2.6906-0.0255-5.3749 0.0194-8.0656zm146.46 175.59c5.1518-2.3017 11.84 1.7534 11.783 7.4981 0.61209 4.8967-3.9276 9.6021-8.8243 9.2387-4.8011 0.0573-8.7924-4.5141-8.4991-9.2196 0.37617-3.2517 2.4165-6.3441 5.5407-7.5172z" fill="#164495"/>
 <path d="m290.85 543.66c6.7202-0.47181 13.511-0.47819 20.231 0.0447-6.7394 0.42081-13.498 0.5037-20.231-0.0447zm35.304-1.4537c1.9446-0.31242 3.9148-0.45907 5.8722-0.69499-0.84161 0.64398-1.6832 1.4665-2.8118 1.5111-3.3601 0.33153-6.7457 0.26778-10.08 0.82249-6.7457 1.1349-13.6 0.4208-20.397 0.61209-5.9998 0.1467-12-0.19766-17.967-0.80975 3.3601 0 6.7202-0.14029 10.08 0.0136 6.733 0.54834 13.491 0.46544 20.231 0.0447 5.0688 0.0573 10.131-0.33154 15.073-1.4983zm-269.41-252.04c0.51007 6.6565 0.58021 13.364 0.0383 20.027-0.63122-6.6565-0.44632-13.364-0.0383-20.027zm54.157 75.772c5.5343-1.6195 11.585 3.4494 10.858 9.1877-0.24229 5.2856-6.0635 9.2132-11.069 7.632-3.9467-1.1923-6.835-5.343-6.1655-9.4874 0.28692-3.4621 3.0987-6.4206 6.3759-7.3323zm304.14-25.886c0.99464-1.1923 2.3145-1.8426 3.8893-1.6322-0.0254 0.64398-0.0701 1.9383-0.0956 2.5823-1.2816-0.25504-2.5504-0.58658-3.7937-0.95002zm1.154-5.5662c0.77786-6e-3 1.5685 0 2.3591 6e-3 -0.0511 0.67586-0.0956 1.3581-0.14029 2.0467-0.71411-6e-3 -1.4218-0.0136-2.1232-0.0136-0.0383-0.68221-0.0702-1.3644-0.0956-2.0403zm8.6713-11.011c1.5238 0.10202 3.7491 0.46546 3.6279 2.4739 0.0447 2.0339-2.0403 2.4675-3.6662 2.4738-0.0383-1.6514-0.0254-3.3027 0.0383-4.9477zm-15.43-0.0701c1.0584 0.29329 2.3208 0.24229 3.1625 1.0839 0.19766 0.99465 0.17216 2.0339-0.0383 3.0286-0.93725 0.62484-2.0722 0.7396-3.137 0.96915-0.0573-1.696-0.0573-3.392 0.0136-5.0816zm-24.394 0.27415c1.7088-0.56108 2.85 0.83526 3.3155 2.3208-0.53557 0.95002-1.0202 2.493-2.3718 2.3272-2.5185 0.3698-3.2772-4.0424-0.94364-4.6481zm-76.983-10.641c44.682-0.0136 89.365 0.0254 134.04-0.0194 0.10843 20.435-5.1071 40.736-14.053 59.047-0.23592-2.3336-0.2933-4.7756-1.3644-6.9115-2.4101 2.8373-4.4122 6.1655-4.935 9.9082-0.56108 2.5567 0.57383 5.0944 0.35068 7.6575-1.4091 2.5631-3.1051 4.9605-4.8202 7.326-0.84799-6.2867-2.2443-12.49-4.138-18.541-0.40168-6e-3 -1.205-0.0194-1.6067-0.0255 1.6705 6.6628 3.5769 13.332 4.1954 20.193-1.1476 2.9393-3.7108 5.1262-5.4833 7.7213-2.1742-2.5568-4.9031-4.5907-7.9954-5.9041 0.19766 3.8001 2.1997 7.0135 4.1252 10.144-6.6182 7.3132-14.091 13.944-22.322 19.408-0.88625-11.853-4.0997-23.425-8.2249-34.532-4.5014-12.204-10.648-23.878-18.981-33.914-5.9424-7.1984-12.376-14.212-20.167-19.44-0.0319 0.51646-0.0956 1.5494-0.12747 2.0658 9.4491 7.3004 17.585 16.233 24.394 26.027 6.2994 9.2515 10.973 19.51 14.607 30.069 2.442 7.0199 4.4058 14.225 5.6427 21.563 0.4272 3.1816 1.154 6.3951 0.82886 9.6213-5.2282 3.8447-11.1 6.7202-16.801 9.8062 0.16575-2.9457 0.0702-5.8977-0.59297-8.7733-0.29965 0.0447-0.89899 0.1403-1.1987 0.19121-2.6269 3.2454-4.2145 7.1219-4.7373 11.26-1.8363 0.99463-3.851 1.6004-5.7957 2.3336-4.7182-14.32-13.256-27.212-23.706-37.994-0.47183 0.083-1.4218 0.24227-1.8936 0.32516 10.514 10.884 19.223 23.744 24.095 38.141-1.6641 0.53557-3.341 1.4983-5.1263 1.3517-1.7661-1.4473-3.2071-3.3346-5.3111-4.3356-2.1295-1.1987-4.5779-1.5812-6.988-1.6641 1.6259 3.1625 4.036 5.8658 7.0645 7.7468-10.756 2.8054-21.889 4.3101-33.015 4.0487 0.0956-44.631 0.0194-89.269 0.0383-133.9m32.434 5.1262c-1.9446 7.3323 1.8235 14.939 7.5874 19.427 0.22952-3.1752 0.51644-6.4716-0.46544-9.5511-1.1668-4.0105-4.0551-7.1729-7.1219-9.8763m-22.105 3.4685c1.2752 2.8054 2.8245 5.5534 5.1454 7.6256 3.0031 2.8755 7.0645 4.3611 11.132 4.884-2.3591-6.8732-8.8689-12.369-16.278-12.51m56.727 0.70136c-0.0892 2.697-0.0956 5.4259 0.6631 8.04 0.49732-1.154 0.91813-2.34 1.3071-3.5259 1.0329 0.0136 2.0658 0.0383 3.1051 0.0702 0.0136-0.35068 0.0447-1.0584 0.0637-1.4155-1.1859-0.14029-2.3655-0.26778-3.5386-0.38892 6e-3 -0.32518 0.0255-0.96914 0.0383-1.288 1.6131-0.11484 3.2135-0.38892 4.7246-0.99463-2.0084-0.98827-4.2272-0.88625-6.3632-0.49733m8.786 0.22315c-2.2061 1.0393-2.8118 4.3356-1.0202 6.0189 2.1551 2.4611 7.2112 0.89262 6.8605-2.6269 0.33791-2.901-3.4876-5.0752-5.8404-3.392m7.4471-0.2359c0.0255 1.9702-0.16575 3.9658 0.20403 5.9169 1.3134 2.3846 5.7957 1.9383 6.0826-1.001 0.14029-1.9128 0.80337-4.5205-1.4346-5.4705-0.16575 1.7343-0.11484 3.4876-0.24229 5.2283 0.11484 1.3517-1.5685 1.1923-2.4101 1.5621-0.91176-1.9765-0.76511-4.1635-0.76511-6.2739-0.35705 6e-3 -1.0775 0.0319-1.4346 0.0383m8.0592-0.65035c-0.17857 2.7544-0.17216 5.5216-0.0637 8.2887 2.5121-0.22954 1.3899-3.2135 1.8044-4.9031 1.3708 1.9064 2.6779 3.9786 4.8202 5.1135 0.0766-2.7416 0.0956-5.4897-0.0383-8.225-2.3208 0.24866-1.4218 2.8947-1.7598 4.4823-1.4218-1.747-2.7672-3.6215-4.7628-4.7564m8.1867 0.65035c0.0637 2.4228 0.0447 4.8521-6e-3 7.2813 1.849-0.13388 4.0487 0.53557 5.6363-0.70773 2.1614-1.5238 1.696-5.3239-0.74599-6.3313-1.6004-0.36344-3.2581-0.22317-4.884-0.24229m8.6394-0.0255c-0.0194 2.4547-0.0319 4.9095 6e-3 7.3706 2.0276 6e-3 4.0742 6e-3 6.0826-0.34431-1.4983-1.2561-3.5067-1.0966-5.3175-1.3708 1.2943-1.2879 3.1688-1.4218 4.8266-1.9446-1.6259-0.63758-3.29-1.1668-4.8521-1.9319 1.8108-0.37617 3.749-0.42718 5.3813-1.4282-2.0212-0.40805-4.0806-0.36342-6.1273-0.35067m7.1155-0.0136c-0.0255 2.4675-0.0255 4.935-0.0194 7.4088 1.8426-0.16574 4.0933 0.42083 5.5471-1.052 1.4218-1.0903 1.3071-3.188 0.72685-4.6863-1.2752-2.2443-4.138-1.4601-6.2548-1.6705m-68.477 3.1051c0.56108 0.26141 1.6832 0.77786 2.238 1.0329 0.7906-1.0584 2.0403-2.9776 0.15933-3.6789-1.7024-1.0074-2.4675 1.2943-2.3974 2.646m2.0722 5.2155c-2.5631 7.09-1.1285 15.525 4.3739 20.856 0.75236-2.4675 1.3708-5.0178 1.3708-7.6128-0.0892-4.9605-2.2634-9.7488-5.7447-13.243m41.558 2.5185c-0.0447 0.38254-0.12747 1.1413-0.17217 1.5238 0.70136 0.2104 1.4155 0.4208 2.1296 0.63758-0.0383 2.3782-0.0383 4.7564-0.0637 7.1347 0.70134 6e-3 1.4091 0.0194 2.1232 0.0383-0.0255-3.3665 0.0319-6.7266-0.0701-10.087-1.3262 0.21041-2.646 0.44632-3.9467 0.75237m6.9498-0.52284c-0.0136 1.747-0.0511 3.494-0.0766 5.2474 1.5557 0.21677 3.1242 0.42719 4.6863 0.68223-0.17216 0.51008-0.51645 1.5302-0.68859 2.0339-1.5749-0.0765-3.1752-0.54831-4.7373-0.13388 0.47819 3.7363 7.8679 2.9712 7.3897-1.0393 0.46544-2.7927-2.6652-3.4558-4.7564-3.5896 0.0383-0.31242 0.12105-0.93088 0.15933-1.2369 1.339 0 2.6779 0.0194 4.0232 0.0319 0-0.50368-0.0136-1.5238-0.0194-2.0339-1.9957 0.0254-3.985 0.0447-5.9806 0.0383m10.297 0.0892c-1.441 0.36342-2.238 1.9383-1.6004 3.3027 0.79063 1.8235-1.3899 3.6598-0.15312 5.3876 1.9383 2.1423 5.8914 1.8235 7.2749-0.7906-0.4208-2.0276-0.66947-4.0551-0.47181-6.1273-0.44632-2.238-3.2836-2.1296-5.0497-1.7725m6.9752-0.0637c-6e-3 0.63121-0.0136 1.2624-0.0136 1.9064 1.5302-6e-3 3.0604 0 4.597 0.0383-1.5238 2.7417-3.1688 5.4323-4.3292 8.3588 1.0074-0.34431 2.4356-0.16575 2.952-1.3134 1.6705-2.8373 3.3346-5.7383 4.2974-8.9072-2.5057-0.1467-5.0051-0.12105-7.5045-0.0828m-103.88 5.2601c4.6544 5.8914 12.739 9.1941 20.084 6.7967-3.0923-3.0541-6.6437-5.9742-11.024-6.8222-3.003-0.45907-6.0571-0.25504-9.0602 0.0255m53.003 26.505c1.1668-2.34 2.238-4.7628 2.7098-7.3514 1.052-4.8521-0.55471-9.8699-3.0668-14.021-3.8511 6.4716-4.2782 15.168 0.35705 21.372m-55.267-17.521c-0.33792 0.68861-0.65033 1.4027-0.93089 2.1232 1.3326 0.59932 2.7353 0.77786 4.0615 0.0637-0.27418-0.89902-0.56108-1.7853-0.86076-2.6651-0.76511 0.13389-1.5366 0.24228-2.2698 0.47819m87.082 1.5749c-1.8936 6.3887 0.63758 13.319 5.6682 17.508 1.8554-6.3504-0.5866-13.377-5.6682-17.508m-71.933 2.9584c4.8521 5.936 13.205 8.1676 20.486 5.9806-2.9457-2.9265-6.4716-5.5917-10.686-6.2165-3.2581-0.36342-6.5545-0.15292-9.7998 0.23592m91.826 1.2879c-0.58022 1.1349-0.96914 2.3527-1.1732 3.6088 1.1668 0.0573 2.34 0.0702 3.5195 0.0573 0.38254-1.8235-0.84163-2.9393-2.3463-3.6662m-31.331 3.5259c1.0393 0.23591 2.1168 0.12747 3.1816 0.12125-0.0383-1.3708-0.0447-2.9584-1.6705-3.3346-1.6514 0.2678-2.0467 1.8108-1.5111 3.2135m23.438 5.9615c-1.1285 3.9084-0.13389 8.0847 1.5876 11.668 1.2879-2.3208 2.697-4.6289 3.3091-7.2367 0.83524-3.8192 0.0511-7.8105-1.6705-11.273-1.3581 2.1296-2.6715 4.3484-3.2262 6.8414m-38.307 4.1316c-1.2051 4.2081-0.17858 8.6394 1.3581 12.618 5.241-5.6236 5.9041-14.225 2.9393-21.104-1.9574 2.5185-3.6088 5.343-4.2974 8.4864m-36.094-3.5131c4.2336 5.5024 11.674 8.2058 18.414 6.2165-2.2507-2.3336-4.7692-4.5524-7.8806-5.6236-3.3665-1.2816-7.0326-0.89902-10.533-0.59297m-14.193 1.1413c-1.4665 0.95-0.0573 2.3591 0.55471 3.3474 0.58657-0.27416 1.7597-0.82887 2.3463-1.103 0.10201-1.5302-1.4218-3.9212-2.901-2.2443m70.518-0.20403c-0.0892 6.7521 4.8138 12.427 10.794 14.964 0.12125-6.7139-4.782-12.51-10.794-14.964m-14.244 30.719c2.0084-2.0148 3.9595-4.1635 5.1709-6.7712 2.1168-4.1699 2.3081-9.1303 1.0584-13.593-5.7574 4.9031-8.4864 13.052-6.2293 20.365m-32.619-19.179c1.5685 2.2443 3.2645 4.5014 5.6299 5.9679 3.3665 2.3208 7.5427 2.9903 11.56 3.0158-3.1943-6.2038-10.272-9.8508-17.189-8.9837m48.878 2.748c0.60571 2.4228 1.3071 4.8648 2.6333 7.0135 2.1487 3.6407 5.8914 5.9487 9.787 7.3514-0.67586-2.5057-1.3772-5.0497-2.7799-7.2558-2.2252-3.4366-5.7383-5.9232-9.6404-7.1092m-77.812 2.2252c0.13389 1.2306 0.43993 2.4994 1.8044 2.8883 1.4473-0.35705 1.696-1.696 1.8044-2.9712-0.4463-0.22317-1.3453-0.6631-1.7916-0.88627-0.45907 0.24229-1.3644 0.72687-1.8171 0.96914m20.275 2.7098c0.31879 0.70134 0.62483 1.4218 1.0457 2.0849 0.78423 0.23592 1.6195 0.11484 2.3782-0.18479 0.68223-1.1987-0.1403-2.3272-0.75237-3.3219-0.89899 0.4527-1.7916 0.92451-2.6715 1.4218m-28.086 4.2017c0.6376 2.187 1.5111 4.3229 2.8182 6.2038 2.2634 3.3729 6.0826 5.292 9.8954 6.344-1.39-6.1655-6.3313-11.56-12.714-12.548m19.102 1.1222c-0.40806 2.7416-0.59934 5.5471-0.2104 8.3078 0.61846 3.4621 2.6524 6.5417 5.2028 8.9136 1.6577-6.0189 0.30605-13.46-4.9924-17.221m22.303-0.0702c3.239 6.089 10.125 9.9911 17.043 9.0219-1.6832-2.3591-3.5195-4.6927-5.9997-6.2548-3.239-2.1551-7.2112-2.8756-11.043-2.7672m31.937 13.479c-1.1285 2.9967-0.99463 6.2356-0.88625 9.379 6.4971-3.9977 10.144-11.885 8.8562-19.44-3.4621 2.5822-6.6246 5.8658-7.9699 10.061m-41.252-2.7161c-2.7162 5.6554-2.5631 12.714 1.1668 17.891 0.97554 0.31881 0.98829-0.84798 1.3007-1.4537 2.0276-5.4323 1.3326-11.929-2.4675-16.437m-33.556 2.0658c3.2963 5.7065 9.9082 9.0984 16.475 8.2122-3.3091-5.6873-9.9974-8.735-16.475-8.2122m46.57-0.22315c2.3017 7.2622 9.0474 12.65 16.609 13.415-1.2306-3.0158-2.8118-5.9806-5.2282-8.2058-3.0796-2.9584-7.2239-4.5269-11.381-5.2091m-3.7299 28.832c0.72047-1.1859 1.4601-2.3527 2.0785-3.5896 2.4165-4.5715 2.0276-10.189-6e-3 -14.818-4.2591 5.0816-5.3239 12.522-2.0722 18.407m-35.061-15.494c3.7172 5.3175 10.412 7.7786 16.75 6.9434-3.4813-5.394-10.399-8.7924-16.75-6.9434m8.8498 10.973c1.9638 2.3017 4.0168 4.7118 6.8732 5.936 2.5759 1.3517 5.5534 1.3007 8.3844 1.205-1.798-2.5249-4.036-4.8329-6.9306-6.0699-2.5759-1.2879-5.5279-1.1668-8.327-1.0712m-13.434 2.5759c0.0194 0.61846 0.0383 1.2369 0.0573 1.8618 0.91814 0.29329 1.8427 0.56745 2.7799 0.82249 0.2104-1.0202 0.39531-2.0403 0.56108-3.0668-0.5037-0.21678-1.5111-0.65672-2.0148-0.8735-0.46544 0.41443-0.9245 0.82887-1.3836 1.2561zm165.72-154.18c5.4897-2.4165 11.623-2.5376 17.508-2.0148 8.091 1.1285 15.8 5.6299 20.352 12.478 4.9605 7.1538 6.2612 16.354 4.9669 24.834-0.47181 3.0158-0.89901 6.1273-2.2443 8.9008-4.393 0.6631-9.0156 0.12747-13.491 0.31879 2.9776-6.2739 4.342-13.421 3.1752-20.307-1.4665-7.0072-7.6575-12.669-14.767-13.504-3.0604-0.24229-6.2293-0.30605-9.1494 0.74599-5.9487 1.7597-10.705 6.9752-11.872 13.077-0.84801 5.3494 0.42718 11.387 4.6353 15.079 2.5567 2.493 6.1336 3.5067 9.6531 3.1369-0.0383-5.1262-0.54833-10.233-0.33793-15.36 3.7937-0.0383 7.5874-0.0255 11.387-0.0956 0.13388 6.6947-0.17216 13.402 0.36342 20.078 0.0702 2.8182 0.14671 5.6554-0.33155 8.4417-4.3994 0.32518-8.8243 1.1732-13.217 0.36342-8.3333-0.93725-16.405-5.4705-20.754-12.765-4.1635-7.1665-5.2856-16.048-3.1306-24.037 2.1997-8.7286 8.8498-16.169 17.253-19.37zm-24.853-20.212c19.172-5.1263 38.16-10.947 57.339-16.061 1.2178 3.9276 2.2571 7.9062 3.3984 11.859-14.677 4.3802-29.476 8.3461-44.172 12.65-4.4185 1.1349-8.735 2.6588-13.198 3.596-1.0775-4.0296-2.2061-8.04-3.3665-12.044zm-236.5-72.169c0.7205-0.5802 1.6259-0.33793 2.4101-0.0383 9.9719 3.8319 18.095 12.369 21.098 22.666 1.6259 4.8266 1.6131 10.01 1.2624 15.041-1.4537 10.763-8.1612 20.69-17.674 25.963-8.4098 4.8393-18.905 5.8722-28.099 2.8054-8.3844-2.6396-15.602-8.633-19.893-16.284-0.78425-1.5111-1.8044-3.0094-1.9957-4.7373 3.0604-5.9551 7.1538-11.336 11.228-16.635 8.939-11.19 19.644-20.983 31.663-28.781zm232.98 11.668c10.552-5.936 21.028-11.993 31.605-17.872 2.2124 3.5195 4.087 7.2367 6.2293 10.794-10.979 6.3377-22.048 12.516-33.059 18.79-3.2007 1.6578-5.5853 4.9605-5.6618 8.6202 0.36342 5.3175 4.6225 11.158 10.431 10.705 2.0339 0.12106 3.9212-0.7141 5.6491-1.696 10.903-6.191 21.787-12.408 32.721-18.535 2.0722 3.6152 4.1571 7.2239 6.1528 10.884-10.935 6.191-21.85 12.42-32.798 18.586-5.936 3.4111-13.409 4.7118-19.88 2.0531-6.0954-2.6333-10.546-8.1676-12.969-14.237-2.3527-5.8595-2.4356-12.93 0.94365-18.414 2.4037-4.2782 6.4397-7.3004 10.635-9.6787zm-186-30.84c4.444-0.77785 8.9072-1.6641 13.44-1.7215 3.6534 0.68861 7.377 0.91813 11.088 0.70136 0.29967 31.21 0.0511 62.427 0.11484 93.637-0.0511 11.904 0.12747 23.814-0.10843 35.718-0.0319 2.5823 0.42718 5.139 1.0138 7.6447-2.85 0.2933-5.6937-0.0766-8.5437-0.14029-38.893 6e-3 -77.786-0.0136-116.68 6e-3 -2.9138 0.12747-5.834 0.43995-8.7478 0.10843-0.37617-10.712 0.7396-21.43 3.0541-31.886 2.104-9.4619 5.0178-18.809 9.2706-27.531 5.9232 8.9773 14.748 16.176 25.102 19.332 9.9783 3.239 21.053 2.8182 30.783-1.0839 8.8625-3.5259 16.628-9.838 21.723-17.923 6.6883-10.252 8.8115-23.259 6.0508-35.157-2.7735-12.395-11.03-23.489-22.207-29.559 10.794-5.8595 22.635-9.685 34.647-12.146m2.6651 10.131c-3.8001 2.0403-7.6447 4.1125-11.183 6.58-3.9212 3.3091-0.40806 10.284 4.4504 9.7934 2.9648-0.72048 5.3877-2.7353 8.0528-4.1188 2.187-1.4091 5.2282-2.391 5.9041-5.2219 1.4282-4.0997-3.0923-8.6521-7.2239-7.0326m0.64395 33.263c-4.5014 0.16575-6.835 6.1273-3.8702 9.4045 2.1997 2.9266 6.1719 1.6195 9.2706 1.7916 3.3219-0.27416 7.6511 0.70136 9.8891-2.4611 2.646-3.0604 0.52921-8.7223-3.5705-8.99-3.9084-0.0701-7.8233 0.0447-11.719 0.25503m-7.7085 29.756c-2.9457 1.0903-4.7054 4.782-3.3091 7.6894 0.91174 2.3272 3.5004 3.086 5.5152 4.1571 2.6332 1.154 5.0689 2.8245 7.8488 3.6151 3.5833 0.9309 7.3132-2.5121 6.6756-6.1528 0.12747-1.9765-1.39-3.5578-3.0222-4.4122-2.6524-1.4154-5.4068-2.6332-8.0655-4.036-1.7279-0.85436-3.7554-1.9765-5.6427-0.86075m-20.907 23.808c-2.7225 1.1349-4.8266 4.6034-3.239 7.4152 1.9829 3.4621 4.3101 6.7266 6.5608 10.023 2.1296 3.2135 7.3897 2.6906 9.2387-0.52919 1.2943-1.9638 1.103-4.648-0.33156-6.4716-2.0275-2.8883-3.7746-5.9679-5.936-8.7478-1.4473-1.9255-4.0933-2.4675-6.293-1.6896m-64.505 2.3272c-2.697 1.1668-3.5578 4.2719-5.0306 6.5672-1.3708 2.8437-4.0997 5.4897-3.3537 8.9136 0.78423 4.24 7.0709 6.089 9.736 2.4802 2.3017-3.5068 4.4122-7.1729 6.3185-10.909 1.6769-4.4058-3.4621-9.1494-7.6702-7.0518m33.002 7.9189c-1.8299 0.73961-3.5833 2.3973-3.6406 4.4823-0.0892 3.0094 0.10842 6.0125 0.12747 9.0219 0.13388 2.2188 0.1467 4.8457 2.053 6.3696 2.8118 2.901 8.378 1.3007 9.2961-2.5631 0.21678-4.0551-0.0637-8.1293-0.1467-12.191 0-3.7618-4.24-6.5226-7.6894-5.1199zm210.42-140.49c8.684-2.9393 18.643-1.2306 26.109 4.0168 5.63 3.9467 10.399 9.2005 13.613 15.302-2.9839 3.2517-5.7256 6.7138-8.7669 9.9082-2.4611-4.2464-4.7819-8.6904-8.4927-12.025-3.4685-3.3856-8.1102-5.9488-13.064-5.8212-10.941-0.1912-20.346 11.075-18.426 21.78 1.3772 8.3843 9.8763 15.232 18.433 13.919 3.2007-0.38894 5.7511-2.5121 7.9444-4.7054-3.7682-3.5833-7.8169-6.8477-11.611-10.399 2.4101-2.9202 4.9924-5.7001 7.4598-8.5756 7.0326 6.2548 14.167 12.388 21.238 18.605-3.9531 6.8095-9.6786 12.898-17.087 15.902-5.8212 2.493-12.599 2.7671-18.567 0.65672-10.163-3.6024-18.567-12.478-20.537-23.215-2.85-14.996 7.3706-30.808 21.755-35.348zm-116.98-50.465c6.8732 0.15934 13.689 1.1668 20.537 1.7088 6.9434 0.47819 13.842 1.4601 20.805 1.7151-0.0573 4.0551-0.80975 8.0528-0.88625 12.108-4.8457-0.12125-9.634-1.0202-14.492-1.0074-1.4346 15.647-2.9138 31.299-4.2336 46.952-4.1762-0.0447-8.3015-0.66309-12.452-0.9245 1.0839-15.87 3.1306-31.669 4.0806-47.545-4.7564-0.0319-9.4427-0.97551-14.199-0.96914 0.14671-4.0232 0.93728-7.9954 0.84164-12.038zm-22.552-32.46c46.672-3.5259 94.313 5.8977 135.93 27.41 44.064 22.679 81.089 58.588 105.45 101.72 17.942 31.695 28.896 67.323 31.816 103.63 0.64395 4.5269 0.29967 9.1303 0.82886 13.676 0.99464 37.012-5.834 74.311-20.479 108.36-22.462 52.818-63.504 97.38-114.1 124.42-31.982 17.253-67.757 27.327-104.01 29.597-10.833 0.33156-21.678 0.34431-32.511-0.0136-23.852-1.6322-47.533-6.3313-70.033-14.48-47.794-17.01-89.92-49.029-119.73-90.014-27.882-38.026-44.746-84.003-48.036-131.04-0.79699-11.03-0.54833-22.124-0.29967-33.174 2.3463-42.476 15.379-84.385 37.962-120.47 17.432-27.997 40.366-52.531 67.036-71.927 37.835-27.589 83.474-44.313 130.17-47.679m-3.8383 11.891c-40.34 3.7044-79.68 17.833-113.15 40.666-38.415 26.007-69.306 63.109-87.459 105.83-11.458 26.607-17.942 55.324-19.319 84.245-0.12113 11.062-0.40806 22.156 0.63759 33.18 1.3198 15.041 3.985 29.992 8.0974 44.529 13.16 47.367 41.418 90.219 79.221 121.56 39.971 33.474 91.118 53.271 143.2 55.502 5.7383 0.3953 11.464-0.61848 17.19-0.0194 6.8222 0.31242 13.638-0.29967 20.422-0.94362-4.9414 1.1668-10.004 1.5557-15.073 1.4983-6.7202-0.52282-13.511-0.51645-20.231-0.0447-3.3601-0.15312-6.7202-0.0136-10.08-0.0136 5.9679 0.61209 11.968 0.95639 17.967 0.80974 6.7967-0.1912 13.651 0.52282 20.397-0.61209 3.3346-0.5547 6.7202-0.49095 10.08-0.82249 1.1285-0.0447 1.9702-0.86712 2.8118-1.5111 29.552-3.8702 58.416-13.154 84.558-27.487 26.556-14.467 50.37-33.945 69.861-57.058 23.119-27.327 40.079-59.825 49.178-94.447 5.2856-20.212 8.2122-41.118 7.8424-62.025-0.10202-7.0071 0.22317-14.046-0.61209-21.015-2.8245-35.437-13.695-70.199-31.523-100.96-24.229-41.933-61.081-76.542-104.71-97.659-39.881-19.447-85.182-27.404-129.31-23.215m-220.58 232.52c-0.40806 6.6628-0.59296 13.37 0.0383 20.027 0.54195-6.6628 0.47181-13.37-0.0383-20.027zm331.17-152.25c-0.13388-7.9444 0.55469-15.863 0.90537-23.795 0.22317 1.7916 0.46546 3.5833 0.61848 5.3877 0.19764 3.1625-0.10201 6.3186-0.28692 9.4682-0.12106 10.61-0.15293 21.219-0.26779 31.829-1.7024-0.59932-3.392-1.2306-5.0115-2.0084 1.3071 6e-3 2.6142-0.0383 3.9276-0.0766-0.41443-6.937 0.24229-13.868 0.11484-20.805zm-16.59-39.633c1.8554-2.0276 3.4494-4.3803 5.732-5.9615 4.2145 1.6004 8.378 3.341 12.612 4.9031-0.10843 7.4279-0.0447 14.856-0.22953 22.284-0.15292-1.8044-0.39531-3.596-0.61848-5.3877-0.35068 7.9317-1.0393 15.851-0.90537 23.795 0.12747 6.937-0.52921 13.868-0.11484 20.805-1.3134 0.0383-2.6205 0.083-3.9276 0.0766-2.7799-0.94365-6.0125-1.594-8.1676-3.6534 0.23591-4.2655 0.54196-8.5374 0.49095-12.816-6.5863-2.493-13.134-5.088-19.714-7.5874-3.1178 3.1944-5.6618 6.9115-8.8498 10.029-4.4504-1.2943-8.6649-3.3155-12.994-4.9477 12.248-13.829 24.426-27.723 36.687-41.539m-6.58 26.581c3.9594 1.6896 8.0146 3.1752 12.031 4.7309 0.0319-6.4333 0.24867-12.854 0.57385-19.268-4.4568 4.6098-8.4035 9.6978-12.605 14.537zm-84.226 35.386c4.0168-0.72048 8.1293-0.43355 12.197-0.56108-0.0637 46.085 0.10843 92.177-0.0892 138.26-0.5866-2.5057-1.0457-5.0625-1.0138-7.6447 0.23589-11.904 0.0573-23.814 0.10842-35.718-0.0637-31.21 0.18479-62.427-0.11484-93.637-3.7108 0.21677-7.4343-0.0136-11.088-0.70136z" fill="#ec1b23"/>
 <path d="m303.43 577.27c0.41445-4.8457-1.001-9.685-0.0319-14.486 0.6631 0.0447 1.9957 0.13388 2.6588 0.18499-0.19766 4.9222 0.52282 9.9082-0.4272 14.779-0.55469-0.12106-1.6514-0.35705-2.1997-0.47819zm14.002-15.041c0.65035-0.0194 1.9638-0.0447 2.6141-0.0637 0.63761 4.9095 0.76511 9.8636 0.77786 14.811-0.86073-0.0383-1.7151-0.0637-2.5631-0.0828-0.5037-4.8776-0.77148-9.7679-0.82886-14.665zm-6.9944 0.47184c0.8735 0.0254 1.7598 0.0511 2.646 0.0828-0.17857 4.8011 0.45907 9.5703 0.58658 14.365-0.95002-0.0637-1.9-0.14029-2.8437-0.24229-0.53557-4.7054-0.32516-9.4746-0.38892-14.206zm-19.032 0.12105c0.87987-0.0319 1.7597-0.0573 2.6396-0.083 0.0136 4.9669-0.0447 9.9401-0.26778 14.901-0.8735-0.19766-1.7342-0.42081-2.5823-0.66947-0.52282-1.3453-0.28053-2.8309-0.19763-4.2145 0.4208-3.2964 0.41443-6.6246 0.40806-9.9337zm-12.624-0.54833c1.0138-0.0766 2.0276-0.15312 3.0541-0.2104 0.12747 4.0041-0.59934 7.9699-0.72047 11.968 0.0194 1.3262-0.78425 2.4165-1.441 3.5004-0.75236-1.0456-1.8682-2.0913-1.5302-3.5004 0.40167-3.9084 0.74597-7.8296 0.63758-11.757zm-6.8414-0.77148c0.96276 0 1.9192 6e-3 2.8883 0.0194-0.7715 4.8266-0.16575 10.01-2.0913 14.575-0.47821 0.0447-1.4346 0.14029-1.9128 0.18498-0.0766-4.9605 0.88624-9.838 1.1158-14.779zm59.621-0.56746c0.88625-0.0194 1.7853-0.0319 2.6779-0.0383 0.47821 4.1699 1.103 8.3142 1.6067 12.484 0.20403 1.1795-0.93727 1.9574-1.4728 2.8755-1.5749-2.1614-1.6514-4.8776-2.0339-7.4152-0.26779-2.6396-0.65673-5.2601-0.77786-7.9062zm-66.832-0.11484c0.88625-6e-3 1.7661 0 2.6588 0.0136 0.0511 4.6927-0.97551 9.3025-0.96277 13.995-1.0648 0.11484-2.1359 0.21041-3.1943 0.31879 0.36342-4.7883 1.3198-9.5192 1.4984-14.327zm74.165 2.6842c-0.12106-1.3389-0.82889-3.0413 0.57383-3.9403 1.0584 0.0383 2.0594 0.62483 2.0403 1.8108 0.59295 4.3675 1.5812 8.7159 1.6514 13.141-0.58657-0.0702-1.7534-0.21678-2.3336-0.28691-1.052-3.4876-1.2816-7.1538-1.9319-10.724zm-81.102-3.9276c0.8735 0.0383 1.747 0.0766 2.6205 0.12747 0.0136 4.7692-1.3198 9.3854-1.6896 14.123-0.8735 0-1.747 0.0136-2.6205 0.0319 0.0319-4.8202 1.2816-9.5001 1.6896-14.282zm88.262-0.54831c0.65034-0.35068 1.3326-0.61211 2.053-0.78425 0.70136 4.8967 2.3463 9.7297 2.0594 14.735-0.67586 0.17217-1.3453 0.33793-2.0148 0.49096-0.80974-3.4813-1.3262-7.0135-2.0467-10.508-0.1912-1.2943-0.66947-2.697-0.0511-3.9339zm-95.212-0.76513c0.98191 0.0892 1.9638 0.18498 2.9521 0.2933-1.0202 4.7947-1.6259 9.685-2.8054 14.448-1.0966 0.59932-2.5185-0.21043-2.2762-1.492 0.40166-4.4568 1.6131-8.8052 2.1295-13.249zm101.66-0.17858c0.55471-0.29967 1.6514-0.89264 2.2061-1.1859 1.7661 4.7628 2.5759 9.8317 3.2964 14.85-0.92451 0-1.8363 0.0136-2.748 0.0255-0.89899-4.5715-1.7534-9.1431-2.7544-13.689zm-108.57-1.0584c0.83524 0.0194 1.6705 0.0511 2.5121 0.0892-0.16575 4.8266-1.849 9.4045-2.5185 14.155-0.96277-0.0255-1.9128-0.0511-2.8628-0.0702 0.81612-4.7501 1.9383-9.4427 2.8692-14.174zm115.65-1.1987c0.90539-0.0383 1.8108-0.0637 2.7289-0.0892 0.91813 4.6353 2.0275 9.2323 3.1752 13.817-0.54834 0.2933-1.6514 0.87988-2.2061 1.1732-2.0467-4.7246-2.7799-9.8699-3.698-14.901zm-125.69 14.18c0.6376-5.0561 1.9638-10.004 3.392-14.888 0.89262 0.20403 1.7916 0.42081 2.6906 0.65035-1.3262 4.291-2.0849 8.735-3.29 13.058-0.17216 1.3644-1.8363 0.93725-2.7927 1.1795zm132.48-15.168c0.56108-0.2869 1.6832-0.84799 2.2443-1.1285 1.7661 4.8074 3.086 9.787 4.036 14.811-1.0265-0.30604-2.6715 0.0956-2.8628-1.3326-1.3836-4.0423-2.3081-8.2313-3.4175-12.35zm-136.16-0.93725c0.89262-0.083 1.7916-0.0511 2.697-0.0194-1.1477 4.7883-2.5504 9.5065-3.6152 14.314-0.97551-0.26142-1.9446-0.52283-2.9074-0.78424 1.3963-4.4695 2.3974-9.0538 3.8256-13.511zm-7.3004-0.94365c0.21677-1.4792 2.0084-1.2497 3.0923-1.6322-0.77149 5.1262-2.5376 10.036-4.1954 14.932-0.84161-0.3443-1.6832-0.68221-2.5185-1.0201 1.2879-4.0678 2.4101-8.1867 3.6215-12.28zm-6.5098-3.5259c1.0074 0.0511 2.0212 0.10201 3.035 0.17216-1.3453 4.7373-3.0222 9.3726-4.5397 14.059-0.92451-0.14029-1.8426-0.28053-2.7608-0.41443 1.3453-4.6289 3.054-9.1494 4.2655-13.817zm170.35-1.1987c0.86712-0.26778 1.7406-0.52921 2.6141-0.78423 1.6705 4.699 3.4621 9.3598 4.7883 14.174-1.001-0.0194-1.9893-0.0254-2.9776-0.0447-1.1094-4.5652-3.1051-8.8434-4.4249-13.345zm-188.6 9.2897c1.8809-4.393 3.4303-8.9263 5.3303-13.313 0.56746 0.23592 1.7087 0.70773 2.2826 0.94365-1.3836 4.8138-3.2836 9.481-5.5343 13.951-0.70136-0.52919-1.39-1.0584-2.0786-1.5812zm202.01-14.996c1.0329 0.18498 2.595-0.29968 2.9202 1.0903 1.8299 3.9403 3.3665 8.0146 5.1772 11.968-0.84798 0.41443-1.696 0.83524-2.5376 1.2624-1.9638-4.7182-4.5843-9.2578-5.5598-14.32zm-203.23-0.98189c0.78425 0.4208 1.5685 0.85438 2.3527 1.2943-1.2624 3.1561-2.6269 6.2675-3.8957 9.4236-0.62484 1.6386-1.6195 3.0987-2.9138 4.2846-0.30604-1.0775-1.1222-2.1678-0.59297-3.2964 1.4984-3.9722 3.2772-7.8488 5.0497-11.706zm209.61-0.79063c0.84162-0.43992 1.6896-0.86712 2.5376-1.2879 1.9191 4.3994 4.0104 8.7159 5.8148 13.16-0.76511 0.37617-1.5175 0.76511-2.2698 1.154-2.2316-4.2464-3.9913-8.7159-6.0826-13.026zm-221.94 11.834c1.1349-5.0625 3.7427-9.6595 6.1017-14.231 0.68861 0.59935 1.3708 1.2178 2.0531 1.8426-1.9383 4.2209-3.9148 8.429-5.7575 12.694-0.80337-0.10843-1.6004-0.20403-2.3973-0.30605zm229.03-13.823c-1.0839-1.2688 1.5685-3.1688 2.1678-1.4601 2.34 4.0678 4.3611 8.3524 6.0316 12.739-0.98828-0.0956-2.3974 0.63123-2.9584-0.51644-2.0977-3.392-3.7682-7.0582-5.241-10.763zm-230-2.7863c0.90537 0.0766 1.8171 0.16575 2.7289 0.26141-1.6641 4.8457-4.0742 9.4045-6.6373 13.823-0.70135-0.52284-1.4027-1.0329-2.104-1.5366 2.0084-4.1826 4.0551-8.3461 6.0125-12.548zm236.18-2.34c0.75874-0.0511 1.5238-0.10202 2.289-0.14029 2.1933 4.2145 4.3293 8.4672 6.5353 12.682-0.797 0.45906-1.5876 0.94363-2.4101 1.3517-1.0648-1.441-1.7916-3.0859-2.6205-4.648-1.492-2.9776-3.4685-5.8403-3.7937-9.2451zm-242.09-1.2051c0.79697 0.42081 1.594 0.85438 2.391 1.2943-2.2443 4.2464-4.597 8.4417-6.6246 12.809-0.797-0.29967-1.6004-0.60572-2.391-0.89901 1.543-4.7054 4.2846-8.8817 6.6246-13.205zm254.58-5.936c0.54194 0 1.6195 6e-3 2.1614 6e-3 2.2188 4.1762 4.9095 8.0783 7.0964 12.274-0.76511 0.46544-1.5238 0.93088-2.289 1.3963-2.155-3.2772-4.1125-6.6756-6.1209-10.042-0.72047-1.0839-0.79697-2.3846-0.84798-3.6343zm6.4779-1.3836c-0.75236-1.1222 0.67584-1.9893 1.1668-2.8883 2.901 4.1188 5.5088 8.4417 8.0273 12.809-0.76511 0.43995-1.5238 0.88627-2.2826 1.3326-2.2826-3.7618-4.9605-7.3004-6.9115-11.254zm5.0752-5.3494c0.83525-0.31242 1.6641-0.66947 2.544-0.88627 2.8182 3.7873 5.2283 7.8806 7.7723 11.859-0.73962 0.58658-1.4665 1.1732-2.1997 1.7598-2.6396-4.291-5.6937-8.3142-8.1166-12.733zm-298.74 10.272c2.7416-4.2209 5.2538-8.6457 8.6713-12.369 0.53556 0.68859 1.0775 1.39 1.6131 2.0913-2.6524 3.851-5.2282 7.7531-8.0145 11.509-0.75874-0.41444-1.5175-0.82887-2.2698-1.2306zm248.63 15.321c0.77149 0.0701 1.5494 0.17857 2.3272 0.32516 1.2624 2.0913 1.8618 4.5078 2.7672 6.7712 0.61846 1.8554 1.5876 3.6343 1.8044 5.6044-0.26141 0.89262-1.2624 1.3134-1.8745 1.9638-1.8044-4.833-4.1125-9.5575-5.0242-14.665zm56.242-30.388c1.0138 0.20403 2.4037-0.10201 3.0222 0.97551 2.1933 2.9521 4.393 5.9232 6.3696 9.0347 0.77785 1.0393 0.22952 2.3591 0.15292 3.5195-2.5057-1.6896-4.1762-4.2464-5.8977-6.6565-1.4473-2.1551-3.2964-4.2017-3.647-6.8732zm5.4323-3.5323c1.0584 0.0136 2.4738-0.87989 3.2836 0.15934 1.9957 2.2953 3.6343 4.8776 5.5343 7.2558 1.0903 1.3134 1.8681 2.8564 2.0658 4.5715-1.2306-0.10842-2.697-0.0319-3.3474-1.3007-2.5759-3.5131-5.4195-6.8605-7.5364-10.686zm-320.74-4.6226c0.70773-1.0839 2.0084-1.3134 3.1816-1.5621-0.10202 1.1349-0.0136 2.4101-0.83524 3.3282-2.4866 3.2517-5.0688 6.4397-7.7914 9.5065-0.69496-0.39532-1.3899-0.77786-2.0849-1.154 2.0722-3.6789 4.9095-6.835 7.53-10.119zm332.28-4.2017c0.53559-0.24229 1.6067-0.71412 2.1423-0.95639 2.8819 3.7172 6.3249 7.0454 8.7542 11.1-0.52919 0.70136-1.1604 1.3198-1.7534 1.9638-2.9074-4.138-7.0518-7.4343-9.1431-12.108zm5.3303-3.7873c0.63759-0.63759 1.2752-1.2624 1.9255-1.8873 2.6332 2.8373 5.1007 5.8212 7.7914 8.6075 0.49733 0.67584 1.3134 1.2624 1.4282 2.1487-0.17857 0.86713-0.98189 1.4473-1.4537 2.1678-3.3091-3.6088-6.5481-7.2877-9.6914-11.037zm-347.64-1.9765c0.9564-1.2242 3.0796 0.35067 2.1296 1.5748-2.6333 3.2772-5.7702 6.14-8.1994 9.5958-0.82886 0.0254-1.6514 0.0573-2.4802 0.0892 0.0637-1.0584 0.0956-2.1933 0.91813-2.9712 2.4165-2.8692 4.9158-5.7065 7.632-8.2887zm353.4-4.3356c1.2497 0.12747 2.5376 0.40803 3.3282 1.4856 2.5631 2.9202 5.2474 5.732 7.8232 8.6394-0.45906 0.79699-1.0202 1.5302-1.5366 2.289-2.8628-3.0732-5.936-5.9679-8.6075-9.2196-0.84798-0.86075-0.8671-2.0849-1.0074-3.1943zm-367.91 9.3598c2.9967-3.8256 6.5226-7.1793 9.9528-10.603 0.70135 0.44632 1.4027 0.90538 2.104 1.3708-3.1816 3.851-6.6118 7.4981-10.099 11.081-0.65033-0.62484-1.3071-1.2369-1.9574-1.849zm41.335 32.249c2.3973-4.1316 4.8712-8.2186 7.5172-12.197 0.85436 0.33793 1.7151 0.68221 2.5822 1.0393-2.5057 4.3165-5.1772 8.5374-8.0528 12.618-0.68222-0.49095-1.3644-0.98188-2.0467-1.4601zm331.38-45.658c0.68859-0.38894 1.39-0.76511 2.0977-1.1413 3.3792 3.3282 6.3823 7.039 9.9082 10.227-0.52919 0.68861-1.052 1.3836-1.5685 2.0913-2.8182-2.1614-5.1836-4.8202-7.683-7.3132-1.154-1.1094-2.0212-2.4611-2.7544-3.8638zm-102.49 61.719c0.7906-0.0766 1.5812-0.1403 2.3846-0.20403 1.1222 4.2081 2.9584 8.2186 3.7937 12.51 0.41443 1.2561-1.0648 1.5366-1.8044 2.1551-1.8363-4.6863-3.6917-9.4491-4.3739-14.461zm108.03-67.891c1.4856 0.30605 2.8436 1.0329 3.8319 2.2061 2.5185 2.7353 5.4195 5.1135 7.8169 7.9699-0.59297 0.67584-1.1222 1.8618-2.2124 1.5876-2.1806-1.5748-3.8702-3.7172-5.834-5.5343-1.6641-1.7725-4.2336-3.4239-3.6024-6.2293zm-379.6-0.0447c0.899-1.0138 2.289-0.1467 3.4047-0.10201-0.98189 1.4346-2.1168 2.7608-3.3984 3.9467-2.5504 2.391-4.8967 5.037-7.785 7.0454-0.4782-0.70773-0.96277-1.4091-1.441-2.1041 3.0732-2.9329 6.1018-5.9105 9.2196-8.786zm385.48-5.2601c3.1306 2.2571 5.7511 5.1071 8.6458 7.6384 0.81612 0.75236 1.6578 1.5175 2.2507 2.4738-0.48456 0.62485-1.0265 1.2051-1.5493 1.8044-3.8256-3.0541-7.377-6.4397-10.916-9.8189 0.51645-0.70773 1.0393-1.4027 1.5685-2.0977zm-404.74 3.2903c3.4558-3.6279 7.4535-6.6628 11.12-10.068 0.49095 0.75873 1.0074 1.5047 1.4282 2.3145-3.2198 3.494-7.2239 6.1655-10.552 9.5575-0.66947-0.59935-1.3326-1.2051-1.9957-1.8044zm412.78-12.427c0.58023-0.48458 1.1604-0.96914 1.747-1.4473 3.6662 2.8692 7.2112 5.8914 10.807 8.8498-0.39531 0.848-0.80337 1.6896-1.1859 2.5504-4.0232-2.544-7.2048-6.1592-11.183-8.7542-0.0447-0.29965-0.14029-0.89899-0.18498-1.1987zm-422.34 1.052c3.3091-3.6917 7.6065-6.2484 11.4-9.3918 0.52283 0.29967 1.5749 0.89264 2.1041 1.1859-0.65035 0.96276-1.339 1.9255-2.2762 2.6396-3.0604 2.4229-6.2739 4.6417-9.2515 7.1793-0.65672-0.54833-1.3198-1.0839-1.9765-1.6131zm-7.9699-13.109c3.6406-2.9648 7.6957-5.3685 11.572-8.0082 0.2933 0.81612 0.62485 1.6386 0.82888 2.4994-3.5705 3.188-7.9253 5.3622-11.687 8.327-0.27416-0.85438-1.7215-2.0148-0.7141-2.8182zm448.45-12.388c4.1826 2.3208 8.0974 5.0752 12.07 7.7404-0.12105 0.75874-0.24229 1.5238-0.35067 2.2953-2.7544-0.38892-4.8584-2.3017-7.1156-3.7427-2.0658-1.3326-4.0678-2.748-6.089-4.138 0.49096-0.72047 0.98189-1.441 1.4856-2.155zm-452.93 6.1464c4.3675-2.2124 7.8998-5.9615 12.599-7.4853 0.12751 0.80337 0.26141 1.6067 0.38893 2.4165-4.2081 2.5631-7.9635 5.9742-12.65 7.6702-0.11476-0.8735-0.22953-1.7406-0.33792-2.6014zm-1.4665-16.361c2.2252-1.2497 4.3675-3.0094 7.0645-2.952-0.38255 0.96277-0.29966 2.3017-1.3326 2.8755-3.5259 2.2634-7.2749 4.1699-10.845 6.3759-0.55471-0.70135-1.1094-1.3963-1.6577-2.0786 2.1487-1.5685 4.4504-2.9202 6.7712-4.2209zm465.08-8.0719c4.5205 1.7279 8.4608 4.6162 12.886 6.5608-0.11484 0.8735-0.22952 1.747-0.33791 2.6332-4.8457-1.3581-8.9008-4.5269-13.377-6.7202 0.20403-0.61846 0.61846-1.8554 0.82888-2.4739zm-477.53-1.9064c3.7873-2.1551 7.734-4.0232 11.63-5.9742 0.47182 0.81612 0.93726 1.645 1.4027 2.4738-4.6162 2.1232-8.8307 5.2793-13.836 6.4206 0.21678-0.97552-0.32517-2.4037 0.80337-2.9202zm483.99-10.584c4.8584 1.1732 9.0347 4.0806 13.562 6.0954-0.39532 0.76511-0.797 1.5238-1.1859 2.2953-4.3611-1.6131-8.4162-3.9084-12.656-5.7957 0.083-0.8735 0.17857-1.7343 0.28053-2.595zm-489 4.6289c4.5652-2.0913 9.0602-4.342 13.651-6.3823 0.40168 0.82886 0.80974 1.6641 1.2114 2.5057-4.2081 2.0339-8.3652 4.2145-12.752 5.834-0.77786-0.57383-1.4346-1.2879-2.1104-1.9574zm491.17-8.9263c0.40806-0.80974 0.82886-1.6131 1.256-2.4101 4.444 2.0212 8.9136 3.9658 13.326 6.0699-0.57384 0.80337-1.1413 1.6131-1.7088 2.4228-4.2209-2.1742-8.6266-3.9658-12.873-6.0826zm-493.48 1.7342c4.5779-1.8235 8.9135-4.2464 13.651-5.6746-6e-3 0.91176 0.0446 1.8299-0.10838 2.7416-4.2081 2.1933-8.6521 3.9594-13.103 5.6299-0.14665-0.89901-0.29329-1.798-0.43994-2.697zm74.63 101.68c3.5514-3.4048 6.1846-7.7085 10.004-10.82 0.68223 0.46546 1.3453 0.95639 1.9957 1.4792-3.3601 3.4494-5.9551 7.6384-9.5894 10.801-0.85436-0.40169-1.6258-0.95638-2.4101-1.4601zm-45.25-49.637c3.9913-2.7098 7.8233-5.6427 11.687-8.5246 0.41444 0.85438 2.1359 2.0594 0.86075 2.9202-3.5386 2.85-7.243 5.5279-11.126 7.8934-0.47819-0.77149-0.95001-1.5302-1.4218-2.289zm466.86-60.189c0.31879-0.82251 0.64398-1.645 0.98189-2.4611 4.4823 1.4856 8.7988 3.4302 13.211 5.1326-0.0573 0.84162-0.10843 1.6832-0.15312 2.5312-4.9414-0.95639-9.3598-3.4621-14.04-5.2028zm-14.454 32.613c-1.594-0.59934-0.54834-2.3145-0.13389-3.3537 4.1571 2.2634 8.1867 4.7501 12.318 7.0645-0.12105 0.86076-0.23589 1.7279-0.35066 2.6014-4.2974-1.3581-7.9061-4.189-11.834-6.3122zm-484.91-31.287c4.7182-1.6195 9.1048-4.3866 14.097-5.0752 0.0574 0.82886 0.10839 1.6705 0.16577 2.5121-4.5907 1.4282-8.8243 3.8574-13.511 4.9987-0.25504-0.81612-0.51007-1.6259-0.75236-2.4356zm502.82-10.68c4.6863 1.6705 9.3025 3.5259 13.938 5.3367-0.34431 0.83524-0.68224 1.6769-1.0074 2.5249-4.4695-1.441-8.7924-3.2836-13.243-4.7756 0.0956-1.0329 0.19764-2.0658 0.31242-3.086zm-505.74 3.6215c4.4823-1.1413 8.5565-3.4494 12.988-4.7373 0.75236 0.4782 1.4856 0.99465 2.1997 1.5494-4.4058 2.7289-9.3981 4.546-14.448 5.6363-0.24229-0.8225-0.49094-1.6322-0.73961-2.4484zm508.49-10.15c4.6098 1.7789 9.43 3.035 13.887 5.2028-0.31242 0.55471-0.94365 1.6514-1.2561 2.2061-4.6098-1.7853-9.5065-2.8819-13.855-5.2984 0.40168-0.70771 0.80974-1.4154 1.2242-2.1104zm-510.56 3.137c4.0615-1.2561 7.9635-2.9776 12.025-4.2272 1.2879-0.68224 1.9447 0.93725 2.7225 1.6577-4.6289 2.1806-9.4682 4.1125-14.531 4.986-0.0765-0.80974-0.14665-1.6131-0.21678-2.4165zm-2.4611-7.1283c4.6799-1.4218 9.3089-3.0031 14.014-4.342 0.06376 0.98189 0.12114 1.9702 0.18491 2.9584-4.5652 1.3198-9.0793 2.8054-13.676 4.0104-0.17854-0.87987-0.35068-1.7534-0.52283-2.6269zm516.88-9.3917c3.086 0.24866 5.9742 1.4282 8.9199 2.3081 1.8426 0.59297 3.7809 1.0138 5.4769 2.0148-0.25503 0.75236-0.57383 1.4728-0.95637 2.1678-4.3866-1.205-8.8179-2.34-13.122-3.8128-0.18479-0.88625-0.24227-1.7853-0.31879-2.6779zm2.0977-7.0326c4.7246 1.1349 9.4109 2.4037 14.104 3.6534-0.0136 0.61848-0.0447 1.8554-0.0573 2.4739-4.8011-0.7141-9.4555-2.0977-14.167-3.2071 0.0319-0.97552 0.0702-1.951 0.12106-2.9202zm-517.86 0.64395c3.1051-0.75234 6.1719-1.8363 9.4045-1.8809-0.29967 0.83524 0.10839 2.3208-0.98189 2.6524-4.3803 1.3326-8.8817 2.2571-13.307 3.4557-0.02549-0.899-0.09564-1.798-0.03189-2.6906 1.543-0.77788 3.2581-1.0967 4.9158-1.5366zm-7.4216-5.6108c4.9732-1.3644 9.9719-2.9839 15.156-3.2262 0.0064 0.81612 0.01904 1.6322 0.03189 2.4611-4.3739 0.7906-8.6139 2.2379-13.02 2.8436-1.3262 0.40168-1.5238-1.3198-2.1678-2.0786zm528.44-8.4162c4.2974 0.21679 8.5246 1.154 12.694 2.1806 1.4665 0.0319 1.2433 1.6769 1.6004 2.697-5.1135-0.22315-10.074-1.6577-15.022-2.85 0.23592-0.68222 0.47819-1.3581 0.72685-2.0276zm-529.41 1.0839c4.5907-1.6514 9.5065-2.1933 14.295-2.9903 0.03826 0.88625 0.07652 1.7725 0.11476 2.6651-4.2336 0.70773-8.4162 1.6705-12.624 2.493-1.3326 0.35067-1.8108-1.1285-1.7853-2.1678zm530.68-8.48c4.7819 0.59295 9.5129 1.5366 14.231 2.5185-0.0447 0.67584-0.14029 2.0276-0.1912 2.7034-4.7118-0.75236-9.379-1.7598-14.097-2.4802 0.0136-0.91814 0.0319-1.8299 0.0573-2.7416zm-532.37 0.7651c4.935-0.65033 9.7807-1.9765 14.773-2.1359 0.01282 0.86712 0.02549 1.7342 0.04463 2.6078-4.7628 0.47819-9.4172 1.696-14.199 2.0849-0.20403-0.85438-0.41444-1.7088-0.61847-2.5568zm523.77 34.047c4.8011 0.53559 9.2515 2.6333 13.861 3.985-0.0254 0.77786-0.0447 1.5557-0.0573 2.34-5.0752-0.70136-9.8381-2.6843-14.69-4.24 0.29967-0.69499 0.58659-1.3963 0.88624-2.0849zm10.297-41.934c4.5524 0.85438 9.1367 1.5366 13.727 2.1487 6e-3 0.85438 0.0255 1.7087 0.0511 2.5695-5.0497-0.33153-10.208-0.80335-14.99-2.5631 0.30605-0.54196 0.91174-1.6131 1.2114-2.1551zm-0.15934-4.5333c0.40806-0.83524 0.86713-1.6386 1.3644-2.4228 4.0423 0.38255 8.0337 1.256 12.089 1.543 1.2816-0.0766 2.2061 1.4282 1.1987 2.3974-4.9286 0.35705-9.7998-0.84801-14.652-1.5175zm-535.81-1.7279c4.648-1.9829 9.8891-1.7151 14.843-2.1232-0.08289 0.82887-0.18491 1.6577-0.31242 2.4866-4.5779 1.0584-9.3407 0.79062-13.951 1.7406-0.14665-0.52283-0.43356-1.5749-0.58021-2.1041zm537.04-7.8232c4.8648 0.40169 9.7297 0.87987 14.594 1.4346-0.0136 0.64398-0.0255 1.9383-0.0319 2.5822-4.9669-0.10202-9.8891-0.79061-14.805-1.4154 0.0573-0.65035 0.17858-1.951 0.24227-2.6014zm-537.66-0.31242c4.0105-0.19765 7.9763-0.86075 11.974-1.2178 1.0074-0.18499 2.0148 0.0766 2.9138 0.54831-0.15302 0.48458-0.45907 1.4474-0.61846 1.9319-4.6927 0.84163-9.481 1.2242-14.257 1.3326 0-0.86713-0.0064-1.7342-0.01282-2.595zm538.15-6.5289c4.8521-0.29968 9.6595 0.5802 14.505 0.5802 0.0383 0.87987 0.0828 1.7661 0.13388 2.6588-4.9158 0.0255-9.8253-0.17217-14.709-0.65673 0.0194-0.86712 0.0447-1.7215 0.0702-2.5822zm0.51007-7.2239c4.7437 0.083 9.4938 0.13389 14.237 0.27416 0.0255 0.86075 0.0573 1.7342 0.10202 2.6014-4.7501 6e-3 -9.5001-0.10201-14.244-0.14671-0.0254-0.68221-0.0701-2.0467-0.0956-2.7289zm-539.38-1.2178c4.7182-0.10843 9.4236-0.59297 14.148-0.51007 0.05738 0.87987 0.11476 1.7598 0.17214 2.646-4.7437 0.64397-9.5448 0.52919-14.32 0.43994v-2.5759zm539.18-5.6618c5.1135-0.1403 10.233-0.17858 15.34 0.0892-0.56746 0.79698-0.59297 2.6396-1.9128 2.5121-4.2591-0.0573-8.5501 0.19765-12.784-0.24229-0.15934-0.59295-0.48458-1.7725-0.64398-2.3591zm-51.989 153.22c1.1094-0.0573 2.4037-0.54196 3.3856 0.23591 3.5386 2.2507 6.7075 5.0242 10.17 7.3961-0.26141 0.55469-0.77787 1.6705-1.0393 2.2316-3.1561-1.0775-5.5407-3.4876-8.2122-5.3685-1.7215-1.1987-3.2007-2.7161-4.3037-4.495zm-487.57-155.09c4.8648-0.0702 9.736-6e-3 14.601-0.15934 0.0064 0.88627 0.01904 1.7789 0.03189 2.6779-4.9477 0.14671-9.9018 0.2359-14.843 0.0319 0.07013-0.85436 0.14028-1.7024 0.2104-2.5504zm539.67-5.6427c4.9541-0.0194 9.9082-0.14671 14.862-6e-3 0.0136 0.85436 0.0383 1.7087 0.0702 2.5695-4.8712-0.40168-10.01 1.4473-14.677-0.32516-0.0637-0.56109-0.1912-1.6769-0.25503-2.238zm-539.96 0.98826c0.3188-1.0074 0.59934-2.0148 1.0329-2.9712 4.6353-0.1912 9.226 0.84799 13.868 0.46544 0 0.88625 0.0064 1.7789 0.01282 2.6715-4.9668 0.10202-9.9464 0.0892-14.913-0.16575zm540.07-8.1548c4.9031 0.21678 9.7679-0.69496 14.671-0.44632-0.0136 0.96277-0.0194 1.9319-0.0194 2.9074-4.8712 0.0766-9.7424 0.21042-14.607 0.21042-0.0255-0.89263-0.0319-1.7852-0.0447-2.6715zm-539.29-1.9191c4.884 0.10201 9.7998-0.10843 14.652 0.54194-0.01283 0.86713-0.02551 1.7342-0.03189 2.6078-4.9222 0.24866-9.8062-0.5802-14.722-0.55471 0.02551-0.65033 0.0765-1.951 0.10201-2.595zm538.89-4.7246c4.6799-1.3262 9.6213-0.86075 14.429-1.1094-0.0136 0.86713-0.0194 1.7406-0.0254 2.6141-4.9286 0.0447-9.7934 1.052-14.728 0.75874 0.0765-0.56746 0.24229-1.696 0.32518-2.2634zm-429.67 240.51c2.4356-4.3038 5.4642-8.3015 8.7032-12.025 0.93725 0.27417 1.8044 0.72687 2.6906 1.1349-2.85 3.4557-5.343 7.192-8.1994 10.641-0.74599 1.0839-2.1487 0.23592-3.1944 0.24867zm428.88-248.02c4.884-0.48458 9.7807-0.76511 14.671-1.2242 0.0319 0.66947 0.0956 2.002 0.12747 2.6715-4.9031 0.64397-9.838 1.1668-14.786 1.2561-6e-3 -0.90539-0.0136-1.8108-0.0136-2.7034zm-536.99-0.26779c-0.19128-0.9309-0.09564-1.8809-0.06376-2.8054 4.8011 0.43355 9.5639 1.2306 14.384 1.4664-0.01904 0.848-0.03189 1.7024-0.05101 2.5631-4.7819 0-9.5448-0.6376-14.269-1.2242zm535.92-6.3951c4.4759-1.0839 9.1048-1.1668 13.632-1.9255 1.1732-0.30604 1.7661 1.1604 1.4792 2.1232-2.0722 1.0967-4.4759 0.96914-6.7202 1.3134-2.3336 0.15934-4.6289 0.63121-6.9498 0.77786-0.52922-0.7396-1.0074-1.5047-1.441-2.289zm-535.05-3.5769c4.7309 0.24229 9.3981 1.1413 14.116 1.5812-0.01904 0.86075-0.03826 1.7279-0.05101 2.595-4.7756-0.12106-9.4746-1.0329-14.206-1.543 0.03189-0.65672 0.10202-1.9765 0.14028-2.6333zm541-4.7692c2.6333-0.42719 5.2856-0.79062 7.9572-0.96276-0.0319 0.8735-0.0573 1.7534-0.0702 2.6332-3.9914 0.47821-7.938 1.2688-11.929 1.7151-1.288 0.31242-2.289-0.75236-3.3282-1.2943 2.1359-1.6004 4.8457-1.645 7.3706-2.0913zm-401.87 282.13c2.0594-4.138 4.3229-8.1994 6.8988-12.038 0.67586 0.56108 1.3581 1.1222 2.0339 1.696-2.1295 3.7873-4.1252 7.6639-6.4588 11.336-0.46544 1.4856-3.29 0.36343-2.4739-0.99463zm-137.61-284.97c4.5843 0.93088 9.2323 1.4218 13.836 2.2188-0.02549 0.86715-0.05101 1.7406-0.07013 2.6142-5.0242-0.67587-10.182-0.86713-15.009-2.5631 0.31242-0.56745 0.93726-1.7024 1.2433-2.2698zm0.86713-6.9115c4.8074-0.19121 9.4427 1.5238 14.206 1.9893-0.03189 0.89264-0.05738 1.7853-0.0829 2.6843-4.9924-0.2933-9.8381-1.6705-14.792-2.2698 0.2104-0.80975 0.39531-1.6259 0.66947-2.4037zm529.16-2.9074c5.0306-1.2369 10.08-2.85 15.309-2.8564-0.0136 0.78425-0.0136 1.5749-0.0136 2.3655-4.6991 0.6631-9.2642 2.1551-13.982 2.6078-0.47181-0.69498-0.90537-1.4027-1.3134-2.1168zm-526.32-11.942c4.3548 0.19766 8.5055 1.7342 12.739 2.646 1.4983 0.0892 2.0849 1.5685 1.4027 2.8054-2.8182 0.083-5.5152-0.87987-8.2377-1.4665-2.0913-0.55469-4.3356-0.82886-6.1846-2.0212 0.07013-0.49095 0.2104-1.4728 0.28054-1.9638zm523.75-2.3718c4.7309-1.0775 9.3407-2.7353 14.167-3.392-0.0766 1.0712 0.37617 2.6269-1.0648 2.9266-4.2591 1.3134-8.6202 2.3208-12.969 3.3027-0.0573-0.95-0.0956-1.8936-0.13388-2.8373zm-521.82-5.2155c4.8266 1.154 9.6213 2.4484 14.327 4.0168-0.3443 0.72048-0.6631 1.4537-1.0648 2.1487-4.6799-0.46544-9.0793-2.3974-13.638-3.5004 0.12114-0.89263 0.24866-1.7789 0.37618-2.6651zm520.14-1.5494c4.4058-1.543 8.9582-2.6396 13.447-3.9403 0.14671 0.62484 0.45269 1.8809 0.59934 2.5057-4.6608 1.645-9.4938 2.7672-14.123 4.5014-0.0194-1.0202-0.15933-2.0594 0.0766-3.0668zm-515.83-12.548c4.5269 0.93727 9.0028 2.2762 13.236 4.1444 1.2114 0.38256 0.55471 1.8299 0.70135 2.7672-5.0306-1.1094-9.8891-2.8819-14.754-4.5779 0.27416-0.78423 0.54195-1.5621 0.81612-2.3336zm510.17 0.31242c3.985-3.392 9.4682-3.9467 14.161-5.9679 0.31879 0.53559 0.95002 1.6195 1.2624 2.1614-3.9339 1.9702-8.1293 3.3282-12.312 4.6353-1.1349 0.49094-2.1232-0.45906-3.1114-0.82888zm-507.7-7.3897c4.8585 1.1222 9.4619 3.0796 14.11 4.833-0.3188 0.75874-0.63122 1.5175-0.95001 2.2826-4.495-1.2752-8.8307-3.0222-13.313-4.3356 0.05101-0.93088 0.10202-1.8618 0.15302-2.7799zm516.03 155.73c0.43993-0.80974 0.91176-1.6004 1.4218-2.3591 4.5333 1.1094 9.2196 1.7725 13.6 3.4366-0.14671 0.80975-0.29968 1.6259-0.47819 2.4356-4.8521-1.1413-9.787-1.9893-14.543-3.5131zm-521.86-46.066c1.5749-0.0447 3.5705-1.001 4.7246 0.52282 0.24228 1.7725-1.5557 2.5121-3.0286 2.3272-3.8829-0.10202-7.734 0.79062-11.604 0.45269-0.08289-0.54833-0.24229-1.6386-0.3188-2.1869 3.2007-1.4027 6.8605-0.40169 10.227-1.1158zm511.89-110.23c4.444-1.6322 8.8052-3.494 13.294-4.9987 0.38894 0.81612 0.78423 1.6386 1.1796 2.4611-4.6353 1.6577-9.1303 3.698-13.829 5.1709-0.22955-0.87987-0.43995-1.7598-0.64398-2.6333zm-500.8-13.485c4.8266 1.1158 9.0921 3.8064 13.855 5.139-0.26142 1.001-0.52283 2.002-0.77149 3.0094-4.5333-1.7406-8.9518-3.7427-13.415-5.6427 0.10839-0.84162 0.22316-1.6769 0.33155-2.5057zm504.49-3.7873c1.154-0.49733 2.3145-1.1732 3.6152-1.1413 0.67584 0.45909 1.2369 1.0648 1.849 1.6259-4.2719 2.391-8.9773 3.8829-13.217 6.3313-0.65035-0.64396-1.2943-1.2943-1.9255-1.9383 2.9266-2.1742 6.4206-3.3155 9.6787-4.8776zm-500.78-3.1497c4.4249 1.9383 8.8498 3.8893 13.154 6.1018-0.33793 1.0648-1.0393 2.3718-2.3846 1.8108-4.1188-1.7406-8.2249-3.6024-12.14-5.783 0.45907-0.71411 0.91176-1.4218 1.3708-2.1296zm488.81 0.79063c3.985-1.9 7.8424-4.0997 11.968-5.6937 0.76511 0.48456 1.4983 1.0329 2.1933 1.6514-4.4122 2.6333-9.1176 4.7373-13.778 6.8669-0.1403-0.94365-0.26779-1.8873-0.38255-2.8245zm-482.92-14.225c4.7309 1.6004 9.0538 4.1826 13.358 6.682-0.37618 0.84798-0.75873 1.7087-1.1222 2.5695-4.2209-2.6078-8.8243-4.495-13.147-6.9051 0.30604-0.78425 0.60571-1.5685 0.91176-2.3463zm477.37-7.377c2.7161-1.5876 5.343-3.5195 8.4927-4.1507-0.16575 1.1349 0.0255 2.5631-1.1987 3.1625-3.6598 2.4165-7.479 4.6353-11.438 6.529-0.16575-0.83526-0.35067-1.6641-0.41443-2.5057 1.3389-1.2561 3.0031-2.0786 4.5588-3.035zm-471.08-3.5769c0.53558-0.68222 1.0584-1.3708 1.645-2.002 4.4376 2.0084 8.5501 4.6927 12.605 7.3769-0.58659 0.75874-1.1796 1.5047-1.7789 2.2507-4.0806-2.6715-8.378-4.9796-12.471-7.6256zm463.43-0.17216c3.8192-2.4611 7.6702-4.9031 11.725-6.9689 0.2168 0.86712 0.43358 1.7342 0.65035 2.6078-3.1561 1.9957-6.344 3.9531-9.5129 5.9424-0.89901 0.45267-1.8044 1.2943-2.8756 0.93088-0.68222-0.66947-1.154-2.0658 0.0136-2.5121zm-17.802 302.39c1.0839-0.49733 2.34-1.6641 3.4685-0.57383 3.4558 2.6205 6.7968 5.4004 10.125 8.193-0.62483 0.63123-1.2497 1.2688-1.8618 1.9064-4.0104-3.0477-8.1548-5.9551-11.732-9.5256zm12.956-307.63c3.9595-2.8309 7.989-5.5662 12.216-7.989 0.40169 0.78426 0.80975 1.5685 1.2114 2.3655-3.9531 2.748-7.938 5.4642-12.082 7.9125-0.45269-0.76511-0.90538-1.5302-1.3453-2.289zm-477.64 43.898c4.9605 0.33154 9.2132 3.2708 13.912 4.6353-0.0064 0.90539-0.01904 1.8235-0.03189 2.7353-4.8967-1.1222-9.3917-3.5004-14.116-5.1772 0.07652-0.73324 0.15302-1.4665 0.23591-2.1933zm28.526-52.914c1.3389 0.15293 2.4547 1.001 3.5641 1.6896 2.8819 1.9638 5.783 3.8893 8.6776 5.834-0.54196 0.79061-1.0903 1.5749-1.6386 2.3655-4.0105-2.799-8.1994-5.3175-12.172-8.1612 0.49733-0.59297 1.0265-1.1732 1.5685-1.7279zm446.67 1.8618c3.4749-2.4547 6.9625-4.8967 10.59-7.1283 0.40806 0.82887 0.82249 1.6641 1.2369 2.5057-3.0031 2.0084-5.9487 4.1125-8.8817 6.2293-1.205 0.95002-2.7034 1.2816-4.189 1.4282 0.15312-1.1094 0.0766-2.4547 1.2433-3.0349zm-443.81-6.2229c0.54833-0.87989 1.0903-1.7598 1.6322-2.646 3.7299 3.1369 7.8041 5.8276 11.693 8.7414-0.40169 0.78426-0.80975 1.5749-1.2114 2.3591-4.1316-2.6779-8.1484-5.5343-12.114-8.4545zm-49.082 139.7c0.16577-0.86713 0.10202-1.8044 0.54195-2.5886 4.6353-0.0637 9.226 0.84162 13.868 0.75237-0.0064 1.0265-0.01282 2.0594-0.01904 3.0987-4.7628-0.83523-9.6276-0.4463-14.39-1.2624zm497.66-145.89c1.001-0.80335 1.9957 0.43994 2.9457 0.75873-3.6534 3.6534-7.7978 6.9562-12.42 9.277-0.22952-0.56746-0.68222-1.7151-0.90537-2.2826 3.545-2.4738 6.8159-5.3175 10.38-7.7531zm-197.12 426.17c0.90539 0.1403 1.7725 0.40806 2.595 0.80973 0.76511 3.9212 0.8735 7.9444 1.2752 11.917 0.38257 1.3517-0.73322 2.8437-2.1806 2.2061-1.2369-1.9765-0.79062-4.4058-1.0584-6.6054-0.31241-2.7671-0.72047-5.5343-0.63123-8.327zm-159.48-35.705c0.83524 0.29328 1.6577 0.59932 2.4866 0.91813-1.9319 4.0232-4.1635 7.9125-6.7266 11.56-0.66309 1.0775-2.0339 0.44632-3.0286 0.43995 1.9765-4.546 4.8903-8.5948 7.2686-12.918zm-87.835-390.96c0.98827-0.30604 2.0594-1.6195 3.0732-0.74599 3.5323 2.4484 6.8732 5.1645 10.355 7.683-0.25504 0.55471-0.76511 1.6705-1.0138 2.2252-4.5715-2.3846-8.6202-5.7001-12.414-9.1622zm437.87 316.93c0.52921-0.79698 1.0712-1.594 1.6259-2.3718 3.5705 2.6141 7.4088 4.8776 10.928 7.5682 1.1158 0.89264-0.0828 2.2507-0.39531 3.2517-4.0678-2.799-8.0464-5.7192-12.159-8.4481zm-8.429-313.85c3.5769-3.443 7.7978-6.1018 11.515-9.3854 0.59932 0.66947 1.2114 1.3453 1.8171 2.0212-3.5705 3.3665-7.6065 6.1846-11.407 9.2834-0.65034-0.64397-1.288-1.2816-1.9255-1.9192zm-423.4-10.884c3.8957 2.9266 7.9827 5.6937 11.445 9.1367-0.23591 0.87988-0.68223 1.6769-1.0648 2.5057-3.7299-3.0987-7.8041-5.7957-11.324-9.124 0.23591-0.86713 0.61209-1.6896 0.94364-2.5185zm419.02 5.19c3.6088-3.3027 7.5045-6.2867 11.234-9.4491 0.6376 0.67586 1.2752 1.3517 1.9192 2.0275-3.7299 3.1561-7.3897 6.4014-11.273 9.3726-0.63121-0.65035-1.2624-1.3007-1.8809-1.951zm-406.9 352.73c3.1114-3.188 6.6055-5.9998 10.004-8.888 0.41444 0.43356 1.2433 1.307 1.6641 1.7406-3.3282 3.6598-7.0773 6.8924-10.782 10.163-0.49732-0.88625-2.053-2.0339-0.88626-3.0158zm-8.7031-361.28c0.52921-0.68859 1.0775-1.3644 1.6769-1.9957 4.0742 2.6779 7.6384 6.0508 11.381 9.1622-0.57383 0.72048-1.1477 1.441-1.7215 2.1678-3.8766-2.9967-7.5236-6.2612-11.336-9.3344zm-14.901 314.7c1.3071-0.73324 2.6269-1.6131 4.1635-1.7279 0.44631 0.60572 0.83524 1.2561 1.2178 1.9128-3.8511 2.2316-7.5236 4.7628-11.407 6.937-1.103 0.70773-1.9128-0.93726-2.8182-1.3581 2.7926-2.1487 5.8212-3.9658 8.8434-5.7638zm427.55-313.31c3.2007-2.7098 6.3249-5.5343 9.7105-8.0273 0.45269 0.75874 0.92452 1.5175 1.3836 2.289-3.1114 2.6906-6.1592 5.4642-9.3089 8.1038-0.89901 0.83523-2.1678 0.72685-3.29 0.84161 0.19764-1.1859 0.46544-2.4484 1.5047-3.2071zm-407.24-6.9115c-0.66947-1.154 0.53558-1.6769 1.3517-2.1742 3.1688 2.2571 5.885 5.088 8.8434 7.6001 1.0967 0.81612 1.6004 2.0849 1.951 3.3601-1.2943-0.0511-2.7927 0.13388-3.7299-0.96276-2.8182-2.595-5.8021-5.0242-8.4162-7.8233zm401.01 3.2326c3.2517-3.4048 6.784-6.5098 10.252-9.6787 0.75874 0.49095 1.5238 0.98191 2.2953 1.4728-3.4685 3.7299-7.2749 7.1857-11.215 10.406-0.44632-0.73322-0.89262-1.4664-1.3326-2.1997zm-395.36-11.069c4.4759 2.4739 7.428 6.8477 11.566 9.7934-0.71411 0.68224-1.4027 1.4218-2.2762 1.9-3.6152-2.8373-6.6692-6.3249-10.195-9.277 0.22315-0.60572 0.67584-1.8108 0.90538-2.4165zm396.68-0.40168c1.645-1.5302 3.1497-3.6598 5.6618-3.5642-0.0194 1.4474-0.48456 2.8246-1.6514 3.7491-3.0158 2.8309-5.7511 5.9806-9.0921 8.4353-0.33792-0.86713-0.73323-1.7151-0.91814-2.6269 1.7215-2.2571 4.0168-3.9786 5.9998-5.9934zm-121.05 442.85c0.51645-0.14671 1.5494-0.42718 2.0658-0.57383 1.0074 1.3836 1.3517 3.0923 1.8873 4.6927 0.87989 3.0732 2.0531 6.0954 2.3272 9.3152-0.82249 0.2104-1.6386 0.43994-2.4547 0.66947-1.0329-4.7692-2.8628-9.3216-3.8256-14.104zm-338.12-333c4.5397 1.0966 8.939 2.6906 13.44 3.9276-0.01904 0.78424-0.03826 1.5621-0.06375 2.3527-4.9668-0.37617-9.5256-2.5568-14.32-3.7235 0.30604-0.85438 0.62484-1.7087 0.94364-2.5568zm67.177-112.25c-1.0138-1.0393 0.58021-1.849 1.1349-2.6141 3.6152 3.3538 7.141 6.8095 10.539 10.386-0.70135 0.51008-1.3581 1.1094-2.1551 1.4601-3.3537-2.8692-6.4524-6.0635-9.5193-9.2323zm380.49 3.9658c3.341-3.8064 6.9752-7.3387 10.514-10.967 0.46544 0.82886 0.96914 1.645 1.3644 2.5185-2.9839 3.6215-6.5927 6.6628-9.7615 10.119-0.70773-0.55471-1.4155-1.1094-2.1168-1.6705zm-374.31-11.808c3.8893 3.2007 7.377 6.9434 10.399 10.96-0.67584 0.42083-1.3453 0.84164-2.0148 1.2624-3.3665-3.3218-6.6374-6.7457-9.9656-10.112 0.5292-0.70773 1.052-1.4091 1.5812-2.1104zm317.14 431.78c0.64398-0.61846 1.2943-1.2306 1.9447-1.8363 2.7735 4.1826 5.0306 8.6776 7.3961 13.096-0.54194 0.33156-1.6259 1.001-2.1678 1.3326-2.7162-4.0104-4.9031-8.3333-7.1729-12.592zm61.477-435.12c0.7141-0.63121 1.9319 0.17857 2.1806 0.99465-0.77148 1.8363-2.391 3.1051-3.6406 4.597-1.849 1.9255-3.4685 4.1252-5.6044 5.7511-0.91813 0.79063-1.5366-0.43992-2.1104-1.0074 0.54196-1.5494 1.8235-2.6524 2.8692-3.8511 2.104-2.1614 4.0104-4.5205 6.3058-6.4843zm-374.57-1.4218c1.103 0.14029 2.3718 0.0892 3.1306 1.0584 3.0413 3.0413 5.8531 6.3186 8.5246 9.6914-0.73959 0.41443-1.4792 0.82887-2.2188 1.2497-2.799-2.952-5.783-5.7447-8.276-8.9709-0.73324-0.848-0.91813-1.9702-1.1604-3.0286zm421 84.379c4.4185-2.1551 8.5884-4.9158 13.319-6.344 0.22315 0.57383 0.6631 1.7151 0.87988 2.289-4.3866 2.1551-8.5501 4.8457-13.262 6.2612-0.23592-0.54833-0.70136-1.6514-0.93725-2.2061zm-60.386-78.449c2.7927-3.5705 5.834-6.9625 8.939-10.272 0.65035 0.56746 1.3134 1.1413 1.9765 1.7151-3.2135 3.7873-6.0826 8.0145-10.055 11.056-0.72687-0.61208-1.6195-1.543-0.86076-2.4994zm-353.49-11.413c3.494 3.4621 6.5544 7.3196 9.7679 11.03-0.4527 0.5547-0.89902 1.103-1.3453 1.6514-0.31243-0.0194-0.93727-0.0573-1.2497-0.0701-2.8564-3.5705-5.8148-7.0582-8.8625-10.463 0.56108-0.72047 1.1222-1.4346 1.6896-2.1487zm350.92 3.1561c1.951-2.1168 3.3984-4.7628 5.8148-6.4014 0.73962 0.28692 1.4728 0.58659 2.1997 0.91813-2.4739 3.3027-5.0625 6.529-7.7723 9.6404-0.82886 1.0839-2.1296 1.5302-3.3984 1.8554-0.59932-2.5886 1.798-4.189 3.1561-6.0125zm-347.1-6.1273c0.77151-0.55468 1.5494-1.1094 2.3272-1.6641 2.9202 4.1635 7.2176 7.4598 9.0474 12.306-1.1859-0.10843-2.5567 0.0573-3.341-1.0329-2.8564-3.0413-5.394-6.3759-8.0337-9.6085zm346.83-4.8712c0.80337 0.21677 1.5685 0.56108 2.3591 0.85438-2.7098 3.8702-5.5088 7.7149-8.6968 11.196-1.3134 1.2114-2.7098-1.1477-1.5685-2.1933 2.3974-3.4558 5.1263-6.6947 7.9062-9.8572zm-441.16 160.05c4.8074 0.44632 9.4682 1.7661 14.193 2.6588 0 0.91813-0.0064 1.8426-0.01283 2.7671-4.7501-0.75874-9.4364-1.8426-14.18-2.646v-2.7799zm502.91-69.689c3.6343-2.0531 7.3196-4.0168 11.043-5.9041 0.19766 0.8735 1.2561 1.9064 0.45907 2.7417-1.307 1.0966-2.8883 1.7916-4.3548 2.6269-2.7289 1.4218-5.3367 3.2581-8.4545 3.6917 0.15933-1.154-0.0136-2.6396 1.3071-3.1561zm-402.82-90.124c0.78423-0.56108 1.5685-1.1158 2.3591-1.6641 3.0094 3.7235 6.0061 7.4726 8.8243 11.356-0.65035 0.62484-1.3007 1.2433-1.951 1.8681-3.1561-3.7873-6.0316-7.8041-9.2323-11.56zm333.99-3.6279c0.62485-1.052 1.8809-1.0265 2.952-1.1859-0.1467 1.2688-0.34428 2.5823-1.1795 3.596-2.002 2.697-3.9212 5.4642-6.0444 8.0656-0.68861 1.3071-3.3984 0.95002-2.6014-0.797 1.8745-3.4876 4.4695-6.5481 6.8732-9.6786zm-321.37-5.1263c0.47819-0.69498 1.0584-1.3134 1.6131-1.951 2.8245 3.8319 5.7001 7.6575 8.1166 11.757 0.75236 1.696-2.3718 1.8235-2.8692 0.52922-2.391-3.3665-5.0306-6.6246-6.8605-10.335zm309.34-3.7745c0.58657-1.2688 2.0913-0.33794 3.1369-0.42081-1.9446 4.7437-5.2729 8.735-8.1867 12.905-0.68223-0.58022-1.3581-1.1668-2.0276-1.747 2.3272-3.596 4.6353-7.2112 7.0773-10.737zm-302.62-1.7661c0.56108 0.0255 1.1285 0.0511 1.696 0.0766 2.493 4.0551 5.4833 7.8169 7.5937 12.102-0.81611 0.29967-1.6322 0.60571-2.4484 0.90538-2.4101-3.8766-5.0115-7.6256-7.632-11.362 0.19765-0.42718 0.59297-1.2879 0.79062-1.7215zm296.97-3.29c0.83524 0.26778 1.6641 0.54196 2.5057 0.82249-1.9064 3.8829-4.1507 7.6128-6.5927 11.177-0.61847 1.2561-2.0722 0.99465-3.2262 1.103 1.2369-4.935 5.0178-8.6649 7.3132-13.103zm-310.16 12.975c0.75873-0.51645 1.5175-1.0265 2.2826-1.5366 2.8692 3.8001 5.6427 7.6703 8.4609 11.509-0.75237 0.61846-1.5111 1.2306-2.2698 1.8426-2.85-3.9212-5.7638-7.7914-8.4736-11.815zm18.509-12.726c0.8735-0.4208 2.2762-1.3644 3.0477-0.30604 2.3973 3.5514 4.444 7.3323 6.9561 10.814-0.44632 0.54833-0.89262 1.103-1.3326 1.6514-0.34431-0.0136-1.0265-0.0447-1.3708-0.0573-2.4228-4.036-4.986-7.9954-7.3004-12.102zm285.19-4.1125c0.83524 0.26779 1.6641 0.54834 2.4994 0.82887-1.8363 4.6098-4.8584 8.5884-7.1283 12.975-0.83524-0.54833-1.6577-1.0967-2.4738-1.6514 2.3974-4.036 4.8648-8.0209 7.1028-12.153zm-278.73 0.19121c0.90537-0.26141 2.2889-1.3644 3.003-0.23592 2.3081 3.7873 4.5078 7.6575 6.58 11.579-0.72685 0.5037-1.4537 1.0074-2.1806 1.5175-2.6333-4.189-5.0625-8.4991-7.4024-12.86zm297.41 12.14c0.31879-0.0194 0.9564-0.0573 1.2752-0.0766 0.45906 0.52284 0.9245 1.052 1.3899 1.5812-2.7863 3.8001-5.4705 7.683-8.0719 11.611-0.77786-0.44632-1.5621-0.88625-2.2953-1.3836 2.1678-4.1571 5.3813-7.6575 7.7021-11.732zm-25.013-16.182c0.79698 0.30604 1.594 0.62483 2.4037 0.94362-1.9319 4.6736-4.6927 8.9327-7.0071 13.409-0.82251-0.52282-1.645-1.0456-2.4611-1.5621 2.3145-4.2846 4.6736-8.5501 7.0645-12.79zm66.188 415.24c3.5195 3.1497 7.3642 5.936 10.699 9.2897 0.84801 0.97551-0.49731 1.9128-1.1476 2.5248-3.8447-3.0923-7.4535-6.4652-11.343-9.5001 0.59297-0.77149 1.1923-1.543 1.7916-2.3145zm-331.38-413.66c-0.61846-1.1987 0.93725-1.9128 1.492-2.7799 2.4611 4.6098 5.5279 8.9646 7.1155 13.982-0.80974 0.12747-1.6195 0.25504-2.4229 0.38257-2.1168-3.8319-4.4695-7.5555-6.1846-11.585zm258.07-4.1635c0.66309-1.1923 2.104-0.0766 3.0222 0.17857-2.1614 4.393-4.3866 8.7541-6.6373 13.103-0.79698-0.40166-1.5812-0.80972-2.3655-1.2178 1.7087-4.1507 3.8957-8.0911 5.9806-12.063zm-252.08-0.92451c0.93727-0.0637 1.8873-0.12106 2.8309-0.17216 1.9957 4.0168 4.0104 8.0273 6.1528 11.974-0.68859 0.62486-1.3772 1.2433-2.0722 1.8618-2.6652-4.3548-5.1071-8.8817-6.9115-13.664zm246.17-3.545c0.73961 0.48458 1.5047 0.95002 2.1933 1.5175-1.9702 4.3548-4.2464 8.5884-6.3058 12.911-0.59297-0.21678-1.7853-0.64396-2.3846-0.85436 1.8235-4.6799 4.0168-9.2068 6.4971-13.574zm-369.75 130.68c0.74598-0.65033 1.1987-2.3081 2.4484-1.696 4.2081 1.5238 8.1357 3.7554 12.146 5.7256-0.3953 0.77788-0.79699 1.5557-1.205 2.3336-4.5588-1.9128-8.9901-4.1125-13.389-6.3632zm15.761-28.207c3.8957 1.4856 7.2175 4.0551 10.794 6.1273 1.543 0.58658 1.1923 2.3272 1.3262 3.6534-4.8138-1.7215-8.7414-5.1135-13.166-7.5682 0.35067-0.73962 0.70135-1.4728 1.0456-2.2125zm114.35-101.91c0.84163-0.33791 1.6896-0.68859 2.5376-1.0265 2.0467 4.1444 4.291 8.2186 6.0571 12.49-0.52283 0.75236-1.0775 1.4856-1.6514 2.1933-2.7735-4.3037-4.6672-9.0857-6.9434-13.657zm116.94 513.07c0.87987-0.0447 1.7598-0.0828 2.646-0.12106-6e-3 4.9031 0.0511 9.8062-0.083 14.709-1.052-0.0383-2.0977-0.0766-3.1369-0.10201 0.87987-4.782 0.43355-9.6595 0.57383-14.486zm115.28-516.05c0.91813 0.0447 1.8426 0.0956 2.7672 0.15312-1.3772 4.7373-3.934 8.9964-5.6746 13.593-0.84801-0.17216-1.6896-0.35068-2.5249-0.52921 1.2369-4.6289 3.6917-8.7796 5.4323-13.217zm-356.52 383.62c4.138-2.391 8.3652-4.6098 12.554-6.8988 0.45269 0.77149 0.90538 1.5557 1.3517 2.3463-4.1316 2.6078-8.5501 4.7182-12.803 7.1219-0.3698-0.86075-0.73961-1.7151-1.103-2.5695zm131.32-383.51c0.70136-0.5037 1.4027-1.001 2.1104-1.4983 2.4165 4.0997 3.7746 8.6968 6.0316 12.873-0.66309 0.62483-1.3326 1.2497-1.9957 1.8745-2.5567-4.1635-4.1188-8.8243-6.1464-13.249zm217.27-0.42718c0.59932-1.4346 1.5685-2.6588 2.595-3.8064 0.33794 0.95002 1.2497 1.8745 0.8799 2.9521-1.2943 4.0105-3.4558 7.6766-4.782 11.687-0.94365-0.0511-1.8809-0.10202-2.8118-0.15934 0.99463-3.6916 2.5822-7.1857 4.1188-10.673zm119.64 390.88c4.393 1.9255 8.174 4.9477 12.299 7.3578-0.21041 0.86713-0.42718 1.7406-0.63758 2.6205-4.3994-2.1487-8.3907-4.9987-12.573-7.5109 0.28692-0.82886 0.59297-1.6514 0.91176-2.4675zm-329.97-394.08c0.82887-0.12106 1.6514-0.24229 2.4866-0.35706 1.7087 4.4887 4.0997 8.735 5.1964 13.447-0.53559 0.22315-1.6195 0.66947-2.1614 0.89262-2.0467-4.5715-4.3293-9.0921-5.5216-13.982zm-87.981 451.59c2.8819-2.9967 5.8404-5.9232 8.8434-8.7988 0.65673 0.59934 1.3071 1.1987 1.9574 1.8108-2.9074 3.0222-5.783 6.0763-8.7796 9.0092-0.69498 0.86076-2.4037 1.5621-3.0094 0.25504-0.48457-0.96277 0.44631-1.6259 0.98827-2.2762zm292.04-452.7c0.31879-1.441 2.0913-0.88625 3.1625-1.1795-0.8735 4.4185-3.0541 8.429-4.5014 12.669-0.31879 1.5685-2.0913 0.8735-3.188 0.91174 1.2816-4.2081 2.9329-8.3014 4.5269-12.401zm-10.922 9.9018c0.90536-4.9668 2.8946-9.6532 4.8202-14.288 0.54196 0.31242 1.6322 0.94365 2.1806 1.2624-1.3517 4.4313-2.9712 8.7733-4.5078 13.141-0.83523-0.0383-1.6641-0.0766-2.493-0.11484zm-179.13-13.861c0.56745-0.22317 1.6896-0.65672 2.2507-0.87989 1.7342 4.6034 3.5896 9.175 4.8584 13.931-0.56109 0.21677-1.6832 0.6567-2.2443 0.87987-1.951-4.5205-3.7363-9.1367-4.8648-13.931zm350.94 214.38c4.6417-0.4782 9.1558-1.7725 13.797-2.2061 0.28055 0.77787 0.52284 1.5748 0.75874 2.3782-4.782 1.1987-9.6404 1.9957-14.512 2.6906-0.0254-0.95639-0.0383-1.9128-0.0447-2.8628zm-174.48-216.67c0.87987 0.12747 1.7661 0.26141 2.6524 0.40806-1.2178 4.7628-2.7672 9.4427-4.5269 14.033-0.78423-0.20403-1.5621-0.40169-2.3336-0.61209 0.96274-4.7373 2.7863-9.226 4.2081-13.829zm-237.36 478.37c0.83524-0.0573 1.6705 0.0383 2.5057 0.10202-2.3145 4.6799-5.6873 8.7223-8.7796 12.898-0.51645-0.65035-1.1222-1.2369-1.492-1.9765 0.16575-1.1923 1.1222-2.0849 1.7215-3.0732 1.9829-2.6715 3.5896-5.6746 6.0444-7.9508zm-88.657-349.85c4.2464 2.0786 8.2823 4.5397 12.459 6.7521-0.26779 0.86712-0.54833 1.7279-0.82887 2.5886-4.546-2.187-9.1622-4.4185-13.096-7.6384 0.3698-0.4272 1.0967-1.2752 1.4665-1.7024zm156.62-128.92c0.84162-0.0573 1.6896-0.10843 2.5376-0.15293 1.4856 4.4568 2.901 8.939 4.4185 13.389-0.85436 0.33793-1.7087 0.66949-2.5631 0.99465-1.6832-4.6672-3.4047-9.3599-4.393-14.231zm7.09-1.7598c0.55471-0.26141 1.6577-0.78423 2.2124-1.052 2.0977 4.5014 2.8118 9.4682 4.5078 14.116-0.91813 0.34429-1.8299 0.68859-2.748 1.0202-1.5238-4.6353-2.7289-9.3662-3.9722-14.084zm238.85 473.63c0.84161-0.3443 1.6832-0.72685 2.5822-0.94362 3.1816 3.4621 5.732 7.4534 8.7669 11.049-0.87987 0.56746-2.34 2.0849-3.1752 0.67585-2.7608-3.5642-5.5216-7.1347-8.1739-10.782zm-260.04-466.58c0.56747-0.17216 1.7151-0.52284 2.289-0.70136 1.7215 4.5014 4.0806 8.8307 5.037 13.574-0.57383 0.18498-1.7279 0.54833-2.3017 0.73322-1.6514-4.546-3.8702-8.8944-5.0242-13.606zm169.06-9.2961c1.0648 0.12125 3.0222 0.083 2.6141 1.7024-1.3708 4.5907-1.8618 9.6149-4.5715 13.676-0.49095-1.0138-1.3262-2.0276-1.0202-3.2326 0.67587-4.1188 2.2571-8.0273 2.9776-12.146zm-140.63 0.0766c0.64395-0.17217 1.9319-0.5292 2.5759-0.70136 1.3262 4.7246 2.7417 9.4619 3.4111 14.339-0.83523 0.22955-1.6769 0.44632-2.5121 0.6631-1.1413-4.7692-2.4866-9.4938-3.4749-14.301zm133.15-0.77786c0.26141-1.4474 1.9319-0.49733 2.8883-0.5866-0.91176 4.6672-1.7406 9.3854-3.1944 13.919-0.77786 0.12747-1.5557 0.22954-2.3336 0.30605 0.3443-4.6226 1.5812-9.1367 2.6396-13.638zm-125.67-1.1413c0.82888-0.20403 1.6641-0.40806 2.4994-0.61209 0.8735 4.9222 2.442 9.7105 3.0668 14.684-0.86713 0.0573-1.7279 0.12125-2.5823 0.17857-1.0967-4.7246-2.5504-9.3981-2.9839-14.25zm-27.206 517.79c0.93088-0.11484 1.8682-0.0637 2.8054-0.0447-1.5621 4.6799-3.1178 9.3726-4.9796 13.951-0.83524-0.42718-1.6705-0.84161-2.493-1.256 1.5876-4.2081 2.8755-8.5246 4.6672-12.65zm-176.12-172.72c4.6608-1.3772 9.3535-2.6588 14.033-3.9722 0.08289 0.95639 0.17214 1.9192 0.25504 2.8883-4.6991 1.2624-9.3471 2.7225-14.084 3.8192-0.05101-0.68221-0.15302-2.0467-0.20403-2.7353zm-7.7021-36.815c4.7819-0.26143 9.4555-1.4218 14.231-1.7151 0.03189 0.65673 0.08289 1.9638 0.11476 2.6141-4.7373 0.93727-9.5511 1.2879-14.308 2.053-0.01283-0.98826-0.02551-1.9702-0.03826-2.952zm329.59-309.56c0.89262 0.0319 1.7789 0.0573 2.6779 0.0892-0.63121 4.8075-1.7661 9.5193-2.6014 14.288-1.0329-0.10843-2.0658-0.2168-3.0987-0.33793 1.3007-4.6098 2.1614-9.328 3.0222-14.04zm-111.29 1.4091c-0.39531-1.2114 1.0775-1.7406 1.6769-2.5504 2.2507 4.6289 2.7289 9.8699 3.5769 14.881-0.85438 0.13388-1.7087 0.23591-2.5631 0.29329-0.98826-4.189-1.8554-8.4035-2.6906-12.624zm104-2.952c0.84163 0.19765 1.696 0.36981 2.5312 0.62485-0.4208 4.6353-1.4856 9.1941-2.1806 13.797-0.89262 0.0194-1.7789 0.0383-2.6588 0.0511 0.39532-4.8712 1.5557-9.6468 2.3081-14.473zm-63.409 535.46c0.86712 0.22954 1.7342 0.47183 2.5823 0.79699 0.13388 4.6736-0.68861 9.3152-0.55471 14.002-1.001-0.14671-1.9957-0.26141-2.9776-0.45907 0.45269-4.7692 0.3443-9.583 0.95002-14.339zm-33.231-535.7c0.83524-0.0383 1.6705-0.0702 2.5121-0.10843 0.7396 4.9605 2.1487 9.8317 2.3145 14.869-1.0456-0.47181-2.901-0.2933-2.8755-1.849-0.74599-4.2846-1.6769-8.5629-1.951-12.911zm89.397-1.2051c0.84164 0.17858 1.6896 0.36343 2.5376 0.54196-0.49096 4.7628-1.4792 9.4491-1.8682 14.218-0.89899-0.0255-1.7916-0.0511-2.6779-0.0701 0.13389-4.9605 1.2242-9.8125 2.0084-14.69zm214.64 213.68c4.6098-1.4856 9.4045-2.2634 14.078-3.5323 0.2933 0.56108 0.88627 1.6769 1.1859 2.238-4.4823 1.8108-9.2834 2.6715-13.989 3.6534-0.45906-0.77788-0.87987-1.5621-1.2752-2.3591zm-13.326-40.347c4.3994-2.2826 9.0411-4.1826 13.778-5.6427 0.51008 0.69497 0.65035 1.5749 0.94365 2.3782-4.3101 1.8299-8.6713 3.545-12.956 5.4259-0.59932-0.72047-1.1923-1.441-1.7661-2.1614zm-165.03-164.07c0.29967-1.5238 1.8809-0.73962 2.8564-0.48459-1.1221 4.6226-2.6651 9.124-4.0041 13.683-0.91176-0.0892-1.8235-0.17858-2.7225-0.27416 1.0648-4.3675 2.3081-8.7095 3.8702-12.924zm-118.34-8.378c0.72047-0.80972 1.7088-1.8554 2.4802-0.46544 0.98826 4.6544 1.7598 9.4109 1.8873 14.186-0.86712 6e-3 -1.7342 0.0136-2.595 0.0255-0.37617-4.6098-1.4537-9.1367-1.7725-13.746zm74.509-1.7024c0.87987 0.0511 1.7534 0.10201 2.6396 0.15312-0.35706 4.5142-0.72685 9.0602-1.7024 13.485-0.1912 1.0776-1.6833 0.86076-2.4356 1.3198-0.0892-5.037 1.1158-9.9592 1.4983-14.958zm216.53 194.14c4.4886-2.2443 9.4491-3.4175 14.276-4.7246 0.0319 0.91174 0.0702 1.8299 0.11484 2.748-3.6024 0.86075-7.0199 2.2953-10.533 3.4175-1.4984 0.5037-3.7937 0.75873-3.8574-1.441zm-283.65-194.12c0.87989-6e-3 1.7661-0.0136 2.6588-0.0136 0.51009 4.7246 1.1859 9.4364 1.5366 14.18-0.88626 0.0383-1.7661 0.0766-2.6396 0.11484-0.61209-4.7501-1.4027-9.4874-1.5557-14.282zm59.519-0.68861c1.0457 0.0383 2.0913 0.0892 3.1433 0.14671-0.62484 3.8829-0.94365 7.8041-1.3389 11.719-0.0637 1.3262-0.9309 2.391-1.5366 3.5067-0.59297-1.0712-1.7088-2.0722-1.4346-3.4111 0.49733-3.9722 1.1477-7.9444 1.1668-11.961zm-51.894-0.10842c0.89262 0.0701 1.7916 0.1467 2.697 0.22315-0.0383 4.833 0.95639 9.6149 0.66309 14.454-0.82886 0.0136-1.6514 0.0255-2.4739 0.0319-0.1912-4.9158-0.89262-9.787-0.88624-14.709zm259.3 397.14c0.60572-0.97551 1.5366-2.1806 2.8309-1.5366 3.9212 1.6067 7.5427 3.8447 11.368 5.6618-0.35705 0.91813-0.73962 1.8299-1.1158 2.748-4.3037-2.4037-8.8562-4.3356-13.083-6.8733zm-214.95-397.56c1.0074-0.0447 2.0276-0.083 3.0413-0.12125-0.13388 4.935-0.82886 9.8317-0.98826 14.773-0.9245-0.0702-1.8426-0.17858-2.748-0.31242-0.21041-4.782 0.75236-9.5448 0.69496-14.339zm-37.146 2.2316c-0.22315-1.4282 0.96277-2.4229 1.6705-3.5131 0.86075 1.6705 1.5557 3.4749 1.4856 5.3876-0.0194 3.3601 0.26141 6.7011 0.66947 10.036-1.0329 6e-3 -2.0594 0.0136-3.0859 0.0194 0.0702-3.9977-0.59934-7.9508-0.73962-11.929zm29.992-2.9202c0.848-0.0136 1.7024-0.0319 2.5631-0.0511 0.0511 4.9477 0.0136 9.9146-0.69496 14.83-0.84801 0-1.6896 6e-3 -2.5249 0.0136-0.31879-4.9541 0.5037-9.8572 0.65673-14.792zm-7.6511-0.0766c0.86712-0.0194 1.7406-0.0383 2.6205-0.0573-0.083 4.9222 0.24867 9.8699-0.23591 14.773-0.77786 0.083-1.5557 0.0892-2.3272 0.0194-0.40167-4.8967 0.0637-9.8253-0.0573-14.735zm-7.2558-0.0383c0.86712 6e-3 1.7406 6e-3 2.6141 0.0136 0.0509 4.9732 0.19766 9.9528 0.0383 14.926-0.85438-0.13388-1.696-0.26141-2.5376-0.38893-0.0319-4.8521-0.0892-9.6978-0.11484-14.55zm-211.75 451.77c3.7682-3.1752 7.428-6.4779 11.4-9.4045 0.61209 0.66947 1.2178 1.3389 1.8299 2.0212-3.6917 3.2262-7.479 6.3377-11.362 9.3216-0.62484-0.65035-1.2497-1.2943-1.8682-1.9383zm204.21-451.73c0.86075 0.0194 1.7279 0.0383 2.6014 0.0511-0.17217 4.9414 0.84163 9.8253 0.59296 14.767-0.85437 0-1.7151 6e-3 -2.5631 0.0136-0.77149-4.9095-0.61848-9.8827-0.63123-14.83z" fill="#eebd25"/>
</svg>
